#N canvas 374 94 449 499 10;
#X msg 91 103 close;
#X obj 50 155 select 192;
#X obj 107 266 spigot;
#X msg 140 243 0;
#X msg 50 204 1;
#X obj 69 332 spigot;
#X msg 102 196 0;
#X obj 50 179 t b b b;
#X msg 50 34 devices;
#X msg 91 79 open \$1;
#X obj 50 226 t f f;
#X obj 50 133 comport 8 9600;
#X obj 69 296 repack 6;
#N canvas 736 215 450 300 values 1;
#X obj 93 45 inlet;
#X obj 92 307 outlet;
#X obj 93 99 t f b;
#X obj 108 240 * 128;
#X obj 93 261 +;
#X floatatom 93 283 5 0 0 0 - - -;
#X obj 147 171 * 128;
#X obj 132 192 +;
#X floatatom 132 214 5 0 0 0 - - -;
#X obj 192 101 * 128;
#X obj 177 122 +;
#X floatatom 177 144 5 0 0 0 - - -;
#X obj 93 77 unpack f f f f f f;
#X obj 149 307 outlet;
#X obj 204 308 outlet;
#X obj 261 308 outlet;
#X connect 0 0 12 0;
#X connect 2 0 4 0;
#X connect 2 1 15 0;
#X connect 3 0 4 1;
#X connect 4 0 5 0;
#X connect 5 0 1 0;
#X connect 6 0 7 1;
#X connect 7 0 8 0;
#X connect 8 0 13 0;
#X connect 9 0 10 1;
#X connect 10 0 11 0;
#X connect 11 0 14 0;
#X connect 12 0 2 0;
#X connect 12 1 3 0;
#X connect 12 2 7 0;
#X connect 12 3 6 0;
#X connect 12 4 10 0;
#X connect 12 5 9 0;
#X restore 69 367 pd values;
#X floatatom 52 405 5 0 0 0 - - -;
#X floatatom 88 406 5 0 0 0 - - -;
#X floatatom 125 406 5 0 0 0 - - -;
#X obj 193 38 hradio 15 1 0 9 empty empty empty 0 -8 0 10 -262144 -1
-1 8;
#X connect 0 0 11 0;
#X connect 1 0 7 0;
#X connect 1 1 2 0;
#X connect 2 0 12 0;
#X connect 3 0 2 1;
#X connect 4 0 10 0;
#X connect 5 0 13 0;
#X connect 6 0 5 1;
#X connect 7 0 4 0;
#X connect 7 1 12 0;
#X connect 7 2 6 0;
#X connect 8 0 11 0;
#X connect 9 0 11 0;
#X connect 10 0 5 1;
#X connect 10 1 2 1;
#X connect 11 0 1 0;
#X connect 12 0 5 0;
#X connect 13 0 14 0;
#X connect 13 1 15 0;
#X connect 13 2 16 0;
#X connect 13 3 3 0;
#X connect 17 0 9 0;
