#N canvas 374 94 449 550 10;
#X msg 91 103 close;
#X obj 50 155 select 192;
#X obj 107 266 spigot;
#X msg 140 243 0;
#X msg 50 204 1;
#X obj 69 332 spigot;
#X msg 102 196 0;
#X obj 50 179 t b b b;
#X msg 50 34 devices;
#X msg 91 79 open \$1;
#X obj 50 226 t f f;
#X obj 50 133 comport 8 9600;
#N canvas 736 215 450 300 values 0;
#X obj 93 45 inlet;
#X obj 92 307 outlet;
#X obj 93 99 t f b;
#X obj 108 240 * 128;
#X obj 93 261 +;
#X floatatom 93 283 5 0 0 0 - - -;
#X obj 147 171 * 128;
#X obj 132 192 +;
#X floatatom 132 214 5 0 0 0 - - -;
#X obj 192 101 * 128;
#X obj 177 122 +;
#X floatatom 177 144 5 0 0 0 - - -;
#X obj 149 307 outlet;
#X obj 204 308 outlet;
#X obj 261 308 outlet;
#X obj 93 77 unpack f f f f f f;
#X connect 0 0 15 0;
#X connect 2 0 4 0;
#X connect 2 1 14 0;
#X connect 3 0 4 1;
#X connect 4 0 5 0;
#X connect 5 0 1 0;
#X connect 6 0 7 1;
#X connect 7 0 8 0;
#X connect 8 0 12 0;
#X connect 9 0 10 1;
#X connect 10 0 11 0;
#X connect 11 0 13 0;
#X connect 15 0 2 0;
#X connect 15 1 3 0;
#X connect 15 2 7 0;
#X connect 15 3 6 0;
#X connect 15 4 10 0;
#X connect 15 5 9 0;
#X restore 69 367 pd values;
#X floatatom 52 405 5 0 0 0 - - -;
#X floatatom 88 406 5 0 0 0 - - -;
#X floatatom 125 406 5 0 0 0 - - -;
#X obj 193 38 hradio 15 1 0 9 empty empty empty 0 -8 0 10 -262144 -1
-1 8;
#N canvas 793 256 450 300 sound 0;
#X obj 76 216 noteout;
#X obj 95 124 moses 10;
#X obj 95 73 inlet;
#X obj 70 156 t b f;
#X msg 58 182 60;
#X obj 165 215 noteout;
#X obj 184 123 moses 10;
#X obj 184 72 inlet;
#X obj 159 155 t b f;
#X obj 283 216 noteout;
#X obj 302 124 moses 10;
#X obj 302 73 inlet;
#X obj 277 156 t b f;
#X msg 147 181 62;
#X msg 265 182 64;
#X connect 1 1 3 0;
#X connect 2 0 1 0;
#X connect 3 0 4 0;
#X connect 3 1 0 1;
#X connect 4 0 0 0;
#X connect 6 1 8 0;
#X connect 7 0 6 0;
#X connect 8 0 13 0;
#X connect 8 1 5 1;
#X connect 10 1 12 0;
#X connect 11 0 10 0;
#X connect 12 0 14 0;
#X connect 12 1 9 1;
#X connect 13 0 5 0;
#X connect 14 0 9 0;
#X restore 84 452 pd sound;
#X obj 69 296 repack 6;
#X connect 0 0 11 0;
#X connect 1 0 7 0;
#X connect 1 1 2 0;
#X connect 2 0 18 0;
#X connect 3 0 2 1;
#X connect 4 0 10 0;
#X connect 5 0 12 0;
#X connect 6 0 5 1;
#X connect 7 0 4 0;
#X connect 7 1 18 0;
#X connect 7 2 6 0;
#X connect 8 0 11 0;
#X connect 9 0 11 0;
#X connect 10 0 5 1;
#X connect 10 1 2 1;
#X connect 11 0 1 0;
#X connect 12 0 13 0;
#X connect 12 1 14 0;
#X connect 12 2 15 0;
#X connect 12 3 3 0;
#X connect 13 0 17 0;
#X connect 14 0 17 1;
#X connect 15 0 17 2;
#X connect 16 0 9 0;
#X connect 18 0 5 0;
