#N canvas 668 49 449 550 10;
#X msg 91 103 close;
#X obj 50 155 select 192;
#X obj 107 266 spigot;
#X msg 140 243 0;
#X msg 50 204 1;
#X obj 69 332 spigot;
#X msg 102 196 0;
#X obj 50 179 t b b b;
#X msg 50 34 devices;
#X msg 91 79 open \$1;
#X obj 50 226 t f f;
#X floatatom 52 405 5 0 0 0 - - -, f 5;
#X floatatom 88 406 5 0 0 0 - - -, f 5;
#X floatatom 125 406 5 0 0 0 - - -, f 5;
#X obj 193 38 hradio 15 1 0 9 empty empty empty 0 -8 0 10 -262144 -1
-1 0;
#N canvas 793 256 450 300 sound 0;
#X obj 76 216 noteout;
#X obj 95 124 moses 10;
#X obj 95 73 inlet;
#X obj 70 156 t b f;
#X msg 58 182 60;
#X obj 165 215 noteout;
#X obj 184 123 moses 10;
#X obj 184 72 inlet;
#X obj 159 155 t b f;
#X obj 283 216 noteout;
#X obj 302 124 moses 10;
#X obj 302 73 inlet;
#X obj 277 156 t b f;
#X msg 147 181 62;
#X msg 265 182 64;
#X connect 1 1 3 0;
#X connect 2 0 1 0;
#X connect 3 0 4 0;
#X connect 3 1 0 1;
#X connect 4 0 0 0;
#X connect 6 1 8 0;
#X connect 7 0 6 0;
#X connect 8 0 13 0;
#X connect 8 1 5 1;
#X connect 10 1 12 0;
#X connect 11 0 10 0;
#X connect 12 0 14 0;
#X connect 12 1 9 1;
#X connect 13 0 5 0;
#X connect 14 0 9 0;
#X restore 84 452 pd sound;
#X obj 50 133 comport 8 38400;
#X floatatom 170 407 5 0 0 0 - - -, f 5;
#X floatatom 206 408 5 0 0 0 - - -, f 5;
#X floatatom 243 408 5 0 0 0 - - -, f 5;
#N canvas 736 22 558 669 -----values--- 0;
#X obj 93 18 inlet;
#X obj 92 572 outlet;
#X obj 93 364 t f b;
#X obj 108 505 * 128;
#X obj 93 526 +;
#X floatatom 93 548 5 0 0 0 - - -, f 5;
#X obj 138 436 * 128;
#X obj 123 457 +;
#X floatatom 123 479 5 0 0 0 - - -, f 5;
#X obj 169 365 * 128;
#X obj 154 386 +;
#X floatatom 154 408 5 0 0 0 - - -, f 5;
#X obj 149 572 outlet;
#X obj 204 573 outlet;
#X obj 498 572 outlet;
#X obj 201 283 * 128;
#X obj 185 304 +;
#X floatatom 185 326 5 0 0 0 - - -, f 5;
#X obj 93 50 unpack f f f f f f f f f f f f f f;
#X obj 232 210 * 128;
#X obj 216 231 +;
#X floatatom 216 253 5 0 0 0 - - -, f 5;
#X obj 263 144 * 128;
#X obj 247 165 +;
#X floatatom 247 187 5 0 0 0 - - -, f 5;
#X obj 294 77 * 128;
#X obj 278 98 +;
#X floatatom 278 120 5 0 0 0 - - -, f 5;
#X obj 253 573 outlet;
#X obj 310 573 outlet;
#X obj 365 574 outlet;
#X obj 418 573 outlet;
#X connect 0 0 18 0;
#X connect 2 0 4 0;
#X connect 2 1 14 0;
#X connect 3 0 4 1;
#X connect 4 0 5 0;
#X connect 5 0 1 0;
#X connect 6 0 7 1;
#X connect 7 0 8 0;
#X connect 8 0 12 0;
#X connect 9 0 10 1;
#X connect 10 0 11 0;
#X connect 11 0 13 0;
#X connect 15 0 16 1;
#X connect 16 0 17 0;
#X connect 17 0 28 0;
#X connect 18 0 2 0;
#X connect 18 1 3 0;
#X connect 18 2 7 0;
#X connect 18 3 6 0;
#X connect 18 4 10 0;
#X connect 18 5 9 0;
#X connect 18 6 16 0;
#X connect 18 7 15 0;
#X connect 18 8 20 0;
#X connect 18 9 19 0;
#X connect 18 10 23 0;
#X connect 18 11 22 0;
#X connect 18 12 26 0;
#X connect 18 13 25 0;
#X connect 19 0 20 1;
#X connect 20 0 21 0;
#X connect 21 0 29 0;
#X connect 22 0 23 1;
#X connect 23 0 24 0;
#X connect 24 0 30 0;
#X connect 25 0 26 1;
#X connect 26 0 27 0;
#X connect 27 0 31 0;
#X restore 69 367 pd -----values---;
#X floatatom 281 408 5 0 0 0 - - -, f 5;
#X obj 225 278 print;
#X obj 69 296 repack 14;
#X connect 0 0 16 0;
#X connect 1 0 7 0;
#X connect 1 1 2 0;
#X connect 2 0 23 0;
#X connect 3 0 2 1;
#X connect 4 0 10 0;
#X connect 5 0 20 0;
#X connect 6 0 5 1;
#X connect 7 0 4 0;
#X connect 7 1 23 0;
#X connect 7 2 6 0;
#X connect 8 0 16 0;
#X connect 9 0 16 0;
#X connect 10 0 5 1;
#X connect 10 1 2 1;
#X connect 11 0 15 0;
#X connect 12 0 15 1;
#X connect 13 0 15 2;
#X connect 14 0 9 0;
#X connect 16 0 1 0;
#X connect 20 0 11 0;
#X connect 20 1 12 0;
#X connect 20 2 13 0;
#X connect 20 3 17 0;
#X connect 20 4 18 0;
#X connect 20 5 19 0;
#X connect 20 6 21 0;
#X connect 20 7 3 0;
#X connect 23 0 5 0;
#X connect 23 0 22 0;
