#N canvas 222 130 789 540 10;
#X obj 378 295 dac~;
#X obj 383 255 *~ 0.1;
#X obj 383 132 r \$0-note1;
#X obj 393 172 r \$0-note2;
#X obj 398 212 r \$0-note3;
#X obj 578 355 dac~;
#X obj 583 315 *~ 0.1;
#X obj 583 132 r \$0-note4;
#X obj 593 172 r \$0-note5;
#X obj 598 212 r \$0-note6;
#X obj 608 252 r \$0-note7;
#N canvas 224 22 1039 621 notestrigger 0;
#X msg 73 99 thresh 2.5 5;
#X obj 63 142 bonk~;
#X obj 90 162 unpack 0 0 0;
#X floatatom 124 183 5 0 0 0 - - -, f 5;
#X floatatom 124 499 5 0 0 0 - - -, f 5;
#X obj 124 479 / 200;
#X obj 90 183 bng 15 250 50 0 empty empty empty 17 7 0 10 -262144 -1
-1;
#X obj 124 516 s \$0-vel;
#X obj 90 537 s \$0-note1;
#X msg 203 99 thresh 2.5 5;
#X obj 203 142 bonk~;
#X obj 230 162 unpack 0 0 0;
#X floatatom 264 183 5 0 0 0 - - -, f 5;
#X floatatom 264 219 5 0 0 0 - - -, f 5;
#X obj 264 199 / 200;
#X obj 230 183 bng 15 250 50 0 empty empty empty 17 7 0 10 -262144
-1 -1;
#X obj 264 236 s \$0-vel;
#X msg 213 120 minvel 100;
#X obj 230 257 s \$0-note2;
#X msg 313 99 thresh 2.5 5;
#X obj 313 142 bonk~;
#X obj 340 162 unpack 0 0 0;
#X floatatom 374 183 5 0 0 0 - - -, f 5;
#X floatatom 374 219 5 0 0 0 - - -, f 5;
#X obj 374 199 / 200;
#X obj 340 183 bng 15 250 50 0 empty empty empty 17 7 0 10 -262144
-1 -1;
#X obj 374 236 s \$0-vel;
#X msg 323 120 minvel 100;
#X obj 340 257 s \$0-note3;
#X msg 443 99 thresh 2.5 5;
#X obj 443 142 bonk~;
#X obj 470 162 unpack 0 0 0;
#X floatatom 504 183 5 0 0 0 - - -, f 5;
#X floatatom 504 219 5 0 0 0 - - -, f 5;
#X obj 504 199 / 200;
#X obj 470 183 bng 15 250 50 0 empty empty empty 17 7 0 10 -262144
-1 -1;
#X obj 504 236 s \$0-vel;
#X msg 453 120 minvel 100;
#X msg 583 99 thresh 2.5 5;
#X obj 583 142 bonk~;
#X obj 610 162 unpack 0 0 0;
#X floatatom 644 183 5 0 0 0 - - -, f 5;
#X floatatom 644 219 5 0 0 0 - - -, f 5;
#X obj 644 199 / 200;
#X obj 610 183 bng 15 250 50 0 empty empty empty 17 7 0 10 -262144
-1 -1;
#X obj 644 236 s \$0-vel;
#X msg 593 120 minvel 100;
#X msg 693 99 thresh 2.5 5;
#X obj 693 142 bonk~;
#X obj 720 162 unpack 0 0 0;
#X floatatom 754 183 5 0 0 0 - - -, f 5;
#X floatatom 754 219 5 0 0 0 - - -, f 5;
#X obj 754 199 / 200;
#X obj 720 183 bng 15 250 50 0 empty empty empty 17 7 0 10 -262144
-1 -1;
#X obj 754 236 s \$0-vel;
#X msg 703 120 minvel 100;
#X msg 823 99 thresh 2.5 5;
#X obj 823 142 bonk~;
#X obj 850 162 unpack 0 0 0;
#X floatatom 884 183 5 0 0 0 - - -, f 5;
#X floatatom 884 219 5 0 0 0 - - -, f 5;
#X obj 884 199 / 200;
#X obj 850 183 bng 15 250 50 0 empty empty empty 17 7 0 10 -262144
-1 -1;
#X obj 884 236 s \$0-vel;
#X msg 833 120 minvel 100;
#X obj 470 257 s \$0-note4;
#X obj 610 257 s \$0-note5;
#X obj 720 257 s \$0-note6;
#X obj 850 257 s \$0-note7;
#X obj 63 40 r~ \$0-A0sig;
#X obj 12 202 spigot;
#X obj 45 185 tgl 15 0 empty empty empty 0 -6 0 8 -262144 -1 -1 0 1
;
#X obj 12 222 print cooked;
#X obj 83 62 env~;
#X floatatom 83 84 5 0 0 0 - - -, f 5;
#X obj 90 438 purepd/once;
#X obj 100 229 f;
#X floatatom 100 251 5 0 0 0 - - -, f 5;
#X obj 144 251 f;
#X floatatom 144 273 5 0 0 0 - - -, f 5;
#X obj 144 321 ==;
#X floatatom 144 344 5 0 0 0 - - -, f 5;
#X obj 144 229 delay 100;
#X msg 83 120 minvel 800;
#X obj 144 292 t b f;
#X obj 144 361 sel 1;
#X obj 144 381 bng 15 250 50 0 empty empty empty 17 7 0 10 -262144
-1 -1;
#X obj 144 401 t b b;
#X connect 0 0 1 0;
#X connect 1 1 2 0;
#X connect 1 1 70 0;
#X connect 2 0 6 0;
#X connect 2 1 3 0;
#X connect 3 0 5 0;
#X connect 3 0 76 1;
#X connect 3 0 78 1;
#X connect 4 0 7 0;
#X connect 5 0 4 0;
#X connect 6 0 76 0;
#X connect 6 0 82 0;
#X connect 6 0 75 0;
#X connect 9 0 10 0;
#X connect 10 1 11 0;
#X connect 11 0 15 0;
#X connect 11 1 12 0;
#X connect 12 0 14 0;
#X connect 13 0 16 0;
#X connect 14 0 13 0;
#X connect 15 0 18 0;
#X connect 17 0 10 0;
#X connect 19 0 20 0;
#X connect 20 1 21 0;
#X connect 21 0 25 0;
#X connect 21 1 22 0;
#X connect 22 0 24 0;
#X connect 23 0 26 0;
#X connect 24 0 23 0;
#X connect 25 0 28 0;
#X connect 27 0 20 0;
#X connect 29 0 30 0;
#X connect 30 1 31 0;
#X connect 31 0 35 0;
#X connect 31 1 32 0;
#X connect 32 0 34 0;
#X connect 33 0 36 0;
#X connect 34 0 33 0;
#X connect 35 0 65 0;
#X connect 37 0 30 0;
#X connect 38 0 39 0;
#X connect 39 1 40 0;
#X connect 40 0 44 0;
#X connect 40 1 41 0;
#X connect 41 0 43 0;
#X connect 42 0 45 0;
#X connect 43 0 42 0;
#X connect 44 0 66 0;
#X connect 46 0 39 0;
#X connect 47 0 48 0;
#X connect 48 1 49 0;
#X connect 49 0 53 0;
#X connect 49 1 50 0;
#X connect 50 0 52 0;
#X connect 51 0 54 0;
#X connect 52 0 51 0;
#X connect 53 0 67 0;
#X connect 55 0 48 0;
#X connect 56 0 57 0;
#X connect 57 1 58 0;
#X connect 58 0 62 0;
#X connect 58 1 59 0;
#X connect 59 0 61 0;
#X connect 60 0 63 0;
#X connect 61 0 60 0;
#X connect 62 0 68 0;
#X connect 64 0 57 0;
#X connect 69 0 1 0;
#X connect 69 0 73 0;
#X connect 70 0 72 0;
#X connect 71 0 70 1;
#X connect 73 0 74 0;
#X connect 75 0 8 0;
#X connect 76 0 77 0;
#X connect 77 0 80 0;
#X connect 78 0 79 0;
#X connect 79 0 84 0;
#X connect 80 0 81 0;
#X connect 81 0 85 0;
#X connect 82 0 78 0;
#X connect 83 0 1 0;
#X connect 84 0 80 0;
#X connect 84 1 80 1;
#X connect 85 0 86 0;
#X connect 86 0 87 0;
#X connect 87 0 75 1;
#X connect 87 1 8 0;
#X restore 368 50 pd notestrigger;
#X text 466 170 D4;
#X text 470 214 E4;
#X text 649 131 F4;
#X text 664 171 G4;
#X text 668 211 A4;
#X text 453 134 C4;
#X text 678 252 B4;
#X obj 608 272 mode 490.2 1.96 2.94 3.3;
#X obj 383 152 mode 257.9 1.97 2.97 3.3;
#X obj 393 192 mode 297.1 1.99 2.98 3.3;
#X obj 398 232 mode 334.6 1.98 2.97 3.3;
#X obj 583 152 mode 352 1.99 2.99 3.3;
#X obj 593 192 mode 395.5 1.99 2.97 3.3;
#X obj 598 232 mode 444.1 1.99 2.98 3.3;
#X msg 91 103 close;
#X obj 50 155 select 192;
#X obj 107 266 spigot;
#X msg 140 243 0;
#X msg 50 204 1;
#X obj 69 332 spigot;
#X msg 102 196 0;
#X obj 50 179 t b b b;
#X msg 50 34 devices;
#X msg 91 79 open \$1;
#X obj 50 226 t f f;
#X floatatom 69 425 5 0 0 0 - - -, f 5;
#X floatatom 83 446 5 0 0 0 - - -, f 5;
#X floatatom 120 406 5 0 0 0 - - -, f 5;
#X obj 91 58 hradio 15 1 0 9 empty empty empty 0 -8 0 10 -262144 -1
-1 1;
#X obj 50 133 comport 8 38400;
#X floatatom 165 407 5 0 0 0 - - -, f 5;
#X floatatom 201 408 5 0 0 0 - - -, f 5;
#X floatatom 238 408 5 0 0 0 - - -, f 5;
#N canvas 736 22 558 669 -----values--- 0;
#X obj 93 18 inlet;
#X obj 92 572 outlet;
#X obj 93 364 t f b;
#X obj 108 505 * 128;
#X obj 93 526 +;
#X floatatom 93 548 5 0 0 0 - - -, f 5;
#X obj 138 436 * 128;
#X obj 123 457 +;
#X floatatom 123 479 5 0 0 0 - - -, f 5;
#X obj 169 365 * 128;
#X obj 154 386 +;
#X floatatom 154 408 5 0 0 0 - - -, f 5;
#X obj 149 572 outlet;
#X obj 204 573 outlet;
#X obj 498 572 outlet;
#X obj 201 283 * 128;
#X obj 185 304 +;
#X floatatom 185 326 5 0 0 0 - - -, f 5;
#X obj 93 50 unpack f f f f f f f f f f f f f f;
#X obj 232 210 * 128;
#X obj 216 231 +;
#X floatatom 216 253 5 0 0 0 - - -, f 5;
#X obj 263 144 * 128;
#X obj 247 165 +;
#X floatatom 247 187 5 0 0 0 - - -, f 5;
#X obj 294 77 * 128;
#X obj 278 98 +;
#X floatatom 278 120 5 0 0 0 - - -, f 5;
#X obj 253 573 outlet;
#X obj 310 573 outlet;
#X obj 365 574 outlet;
#X obj 418 573 outlet;
#X connect 0 0 18 0;
#X connect 2 0 4 0;
#X connect 2 1 14 0;
#X connect 3 0 4 1;
#X connect 4 0 5 0;
#X connect 5 0 1 0;
#X connect 6 0 7 1;
#X connect 7 0 8 0;
#X connect 8 0 12 0;
#X connect 9 0 10 1;
#X connect 10 0 11 0;
#X connect 11 0 13 0;
#X connect 15 0 16 1;
#X connect 16 0 17 0;
#X connect 17 0 28 0;
#X connect 18 0 2 0;
#X connect 18 1 3 0;
#X connect 18 2 7 0;
#X connect 18 3 6 0;
#X connect 18 4 10 0;
#X connect 18 5 9 0;
#X connect 18 6 16 0;
#X connect 18 7 15 0;
#X connect 18 8 20 0;
#X connect 18 9 19 0;
#X connect 18 10 23 0;
#X connect 18 11 22 0;
#X connect 18 12 26 0;
#X connect 18 13 25 0;
#X connect 19 0 20 1;
#X connect 20 0 21 0;
#X connect 21 0 29 0;
#X connect 22 0 23 1;
#X connect 23 0 24 0;
#X connect 24 0 30 0;
#X connect 25 0 26 1;
#X connect 26 0 27 0;
#X connect 27 0 31 0;
#X restore 69 367 pd -----values---;
#X floatatom 276 408 5 0 0 0 - - -, f 5;
#X obj 69 296 repack 14;
#X text 42 9 Receiving Arduino;
#X obj 83 465 sig~;
#X obj 83 487 s~ \$0-A0sig;
#X connect 1 0 0 0;
#X connect 1 0 0 1;
#X connect 2 0 20 0;
#X connect 3 0 21 0;
#X connect 4 0 22 0;
#X connect 6 0 5 0;
#X connect 6 0 5 1;
#X connect 7 0 23 0;
#X connect 8 0 24 0;
#X connect 9 0 25 0;
#X connect 10 0 19 0;
#X connect 19 0 6 0;
#X connect 20 0 1 0;
#X connect 21 0 1 0;
#X connect 22 0 1 0;
#X connect 23 0 6 0;
#X connect 24 0 6 0;
#X connect 25 0 6 0;
#X connect 26 0 41 0;
#X connect 27 0 33 0;
#X connect 27 1 28 0;
#X connect 28 0 47 0;
#X connect 29 0 28 1;
#X connect 30 0 36 0;
#X connect 31 0 45 0;
#X connect 32 0 31 1;
#X connect 33 0 30 0;
#X connect 33 1 47 0;
#X connect 33 2 32 0;
#X connect 34 0 41 0;
#X connect 35 0 41 0;
#X connect 36 0 31 1;
#X connect 36 1 28 1;
#X connect 38 0 49 0;
#X connect 40 0 35 0;
#X connect 41 0 27 0;
#X connect 45 0 37 0;
#X connect 45 1 38 0;
#X connect 45 2 39 0;
#X connect 45 3 42 0;
#X connect 45 4 43 0;
#X connect 45 5 44 0;
#X connect 45 6 46 0;
#X connect 45 7 29 0;
#X connect 47 0 31 0;
#X connect 49 0 50 0;
