#N canvas 252 0 948 769 10;
#X obj 383 307 dac~;
#X obj 383 82 r \$0-note1;
#X obj 393 142 r \$0-note2;
#X obj 398 202 r \$0-note3;
#X obj 623 42 r \$0-note4;
#X obj 633 98 r \$0-note5;
#X obj 638 162 r \$0-note6;
#X obj 638 222 r \$0-note7;
#N canvas 396 304 807 242 notestrigger 0;
#X obj 13 20 r~ \$0-A0sig;
#X obj 213 20 r~ \$0-A1sig;
#X obj 373 20 r~ \$0-A6sig;
#X obj 553 20 r~ \$0-A2sig;
#X obj 13 130 r~ \$0-A5sig;
#X obj 213 130 r~ \$0-A3sig;
#X obj 373 130 r~ \$0-A4sig;
#X obj 373 210 s \$0-note7;
#X obj 373 150 onsetdetector;
#X obj 410 190 s \$0-vel7;
#X obj 13 150 onsetdetector;
#X obj 13 40 onsetdetector;
#X obj 213 40 onsetdetector;
#X obj 373 40 onsetdetector;
#X obj 553 40 onsetdetector;
#X obj 213 150 onsetdetector;
#X obj 448 170 s \$0-notevel7;
#X obj 213 210 s \$0-note6;
#X obj 250 190 s \$0-vel6;
#X obj 288 170 s \$0-notevel6;
#X obj 13 100 s \$0-note1;
#X obj 50 80 s \$0-vel1;
#X obj 88 60 s \$0-notevel1;
#X obj 213 100 s \$0-note2;
#X obj 250 80 s \$0-vel2;
#X obj 288 60 s \$0-notevel2;
#X obj 373 100 s \$0-note3;
#X obj 410 80 s \$0-vel3;
#X obj 448 60 s \$0-notevel3;
#X obj 553 100 s \$0-note4;
#X obj 590 80 s \$0-vel4;
#X obj 628 60 s \$0-notevel4;
#X obj 88 170 s \$0-notevel5;
#X obj 50 190 s \$0-vel5;
#X obj 13 210 s \$0-note5;
#X connect 0 0 11 0;
#X connect 1 0 12 0;
#X connect 2 0 13 0;
#X connect 3 0 14 0;
#X connect 4 0 10 0;
#X connect 5 0 15 0;
#X connect 6 0 8 0;
#X connect 8 0 7 0;
#X connect 8 1 9 0;
#X connect 8 2 16 0;
#X connect 10 0 34 0;
#X connect 10 1 33 0;
#X connect 10 2 32 0;
#X connect 11 0 20 0;
#X connect 11 1 21 0;
#X connect 11 2 22 0;
#X connect 12 0 23 0;
#X connect 12 1 24 0;
#X connect 12 2 25 0;
#X connect 13 0 26 0;
#X connect 13 1 27 0;
#X connect 13 2 28 0;
#X connect 14 0 29 0;
#X connect 14 1 30 0;
#X connect 14 2 31 0;
#X connect 15 0 17 0;
#X connect 15 1 18 0;
#X connect 15 2 19 0;
#X restore 368 20 pd notestrigger;
#X text 392 128 D4;
#X text 396 184 E4;
#X text 621 27 F4;
#X text 633 81 G4;
#X text 638 146 A4;
#X text 383 64 C4;
#X text 638 205 B4;
#X msg 91 103 close;
#X obj 50 155 select 192;
#X obj 107 266 spigot;
#X msg 140 243 0;
#X msg 50 204 1;
#X obj 69 316 spigot;
#X msg 102 196 0;
#X obj 50 179 t b b b;
#X msg 50 34 devices;
#X msg 91 79 open \$1;
#X obj 50 226 t f f;
#X floatatom 83 673 5 0 0 0 - - -, f 5;
#X obj 91 58 hradio 15 1 0 9 empty empty empty 0 -8 0 10 -262144 -1
-1 1;
#X obj 50 133 comport 8 38400;
#X text 42 9 Receiving Arduino;
#X obj 83 689 sig~;
#X floatatom 69 730 5 0 0 0 - - -, f 5;
#X obj 69 746 sig~;
#X floatatom 118 563 5 0 0 0 - - -, f 5;
#X obj 118 579 sig~;
#X floatatom 101 618 5 0 0 0 - - -, f 5;
#X obj 101 634 sig~;
#X obj 118 599 s~ \$0-A3sig;
#X floatatom 134 503 5 0 0 0 - - -, f 5;
#X obj 134 519 sig~;
#X obj 134 539 s~ \$0-A4sig;
#X floatatom 150 444 5 0 0 0 - - -, f 5;
#X obj 150 460 sig~;
#X floatatom 167 388 5 0 0 0 - - -, f 5;
#X obj 167 404 sig~;
#X obj 150 480 s~ \$0-A5sig;
#X obj 167 424 s~ \$0-A6sig;
#X obj 101 654 s~ \$0-A2sig;
#X obj 30 352 print;
#X obj 83 709 s~ \$0-A1sig;
#X obj 69 766 s~ \$0-A0sig;
#X obj 69 296 repack 16;
#N canvas 140 42 758 675 -------values--------- 0;
#X obj 13 8 inlet;
#X obj 12 622 outlet;
#X obj 13 414 t f b;
#X obj 28 555 * 128;
#X obj 13 576 +;
#X floatatom 13 598 5 0 0 0 - - -, f 5;
#X obj 58 486 * 128;
#X obj 43 507 +;
#X floatatom 43 529 5 0 0 0 - - -, f 5;
#X obj 89 415 * 128;
#X obj 74 436 +;
#X floatatom 74 458 5 0 0 0 - - -, f 5;
#X obj 69 622 outlet;
#X obj 124 623 outlet;
#X obj 508 622 outlet;
#X obj 121 333 * 128;
#X obj 105 354 +;
#X floatatom 105 376 5 0 0 0 - - -, f 5;
#X obj 152 260 * 128;
#X obj 136 281 +;
#X floatatom 136 303 5 0 0 0 - - -, f 5;
#X obj 183 194 * 128;
#X obj 167 215 +;
#X floatatom 167 237 5 0 0 0 - - -, f 5;
#X obj 214 127 * 128;
#X obj 198 148 +;
#X floatatom 198 170 5 0 0 0 - - -, f 5;
#X obj 173 623 outlet;
#X obj 230 623 outlet;
#X obj 285 624 outlet;
#X obj 338 623 outlet;
#X floatatom 391 120 5 0 0 0 - - -, f 5;
#X obj 13 40 unpack f f f f f f f f f f f f f f f f;
#X floatatom 445 120 5 0 0 0 - - -, f 5;
#X obj 391 623 outlet;
#X obj 445 623 outlet;
#X connect 0 0 32 0;
#X connect 2 0 4 0;
#X connect 2 1 14 0;
#X connect 3 0 4 1;
#X connect 4 0 5 0;
#X connect 5 0 1 0;
#X connect 6 0 7 1;
#X connect 7 0 8 0;
#X connect 8 0 12 0;
#X connect 9 0 10 1;
#X connect 10 0 11 0;
#X connect 11 0 13 0;
#X connect 15 0 16 1;
#X connect 16 0 17 0;
#X connect 17 0 27 0;
#X connect 18 0 19 1;
#X connect 19 0 20 0;
#X connect 20 0 28 0;
#X connect 21 0 22 1;
#X connect 22 0 23 0;
#X connect 23 0 29 0;
#X connect 24 0 25 1;
#X connect 25 0 26 0;
#X connect 26 0 30 0;
#X connect 31 0 34 0;
#X connect 32 0 2 0;
#X connect 32 1 3 0;
#X connect 32 2 7 0;
#X connect 32 3 6 0;
#X connect 32 4 10 0;
#X connect 32 5 9 0;
#X connect 32 6 16 0;
#X connect 32 7 15 0;
#X connect 32 8 19 0;
#X connect 32 9 18 0;
#X connect 32 10 22 0;
#X connect 32 11 21 0;
#X connect 32 12 25 0;
#X connect 32 13 24 0;
#X connect 32 14 31 0;
#X connect 32 15 33 0;
#X connect 33 0 35 0;
#X restore 69 366 pd -------values---------;
#X floatatom 263 471 5 0 0 0 - - -, f 5;
#X floatatom 383 482 5 0 0 0 - - -, f 5;
#X obj 383 245 *~ 0.3;
#X obj 623 265 *~ 0.3;
#X obj 263 529 mavg 30;
#X floatatom 263 551 5 0 0 0 - - -, f 5;
#X obj 263 490 expr ($f1/255)*90;
#X floatatom 263 512 5 0 0 0 - - -, f 5;
#X obj 380 416 bonk~;
#X obj 380 376 sig~;
#X obj 407 436 unpack 0 0 0;
#X floatatom 441 457 5 0 0 0 - - -, f 5;
#X obj 407 457 bng 15 250 50 0 empty empty empty 17 7 0 10 -262144
-1 -1;
#X obj 383 287 *~;
#X obj 623 305 *~;
#X obj 623 327 dac~;
#X obj 398 267 r \$0-soundonoff;
#X obj 638 285 r \$0-soundonoff;
#X obj 238 97 s \$0-soundonoff;
#X obj 238 80 tgl 15 0 empty empty empty 17 7 0 10 -262144 -1 -1 1
1;
#X obj 545 514 timer;
#X obj 615 470 maxlib/beat;
#X obj 545 494 t b b;
#X floatatom 545 536 5 0 0 0 - - -, f 5;
#X obj 545 554 expr 1/$f1;
#X floatatom 545 576 5 0 0 0 - - -, f 5;
#X msg 411 376 minvel 1800;
#X obj 441 602 local_max;
#X floatatom 441 624 5 0 0 0 - - -, f 5;
#X obj 440 645 bng 15 250 50 0 empty empty empty 17 7 0 10 -262144
-1 -1;
#X floatatom 333 551 5 0 0 0 - - -, f 5;
#X floatatom 451 564 5 0 0 0 - - -, f 5;
#X obj 450 585 bng 15 250 50 0 empty empty empty 17 7 0 10 -262144
-1 -1;
#X obj 451 542 local_min;
#X obj 333 529 mavg 100;
#X obj 453 82 r \$0-vel1;
#X obj 464 142 r \$0-vel2;
#X obj 468 202 r \$0-vel3;
#X obj 687 42 r \$0-vel4;
#X obj 703 98 r \$0-vel5;
#X obj 708 162 r \$0-vel6;
#X obj 706 222 r \$0-vel7;
#X obj 211 192 s GLOBAL_killnotes;
#X obj 211 148 key;
#X obj 211 170 sel 32;
#X text 208 127 SPACE kills notes;
#X obj 638 242 mode 490.2 1.96 2.94 3.3;
#X obj 779 222 r \$0-notevel7;
#X obj 398 222 mode 334.6 1.98 2.97 3.3;
#X obj 383 102 mode 257.9 1.97 2.97 3.3;
#X obj 393 162 mode 297.1 1.99 2.98 3.3;
#X obj 623 62 mode 352 1.99 2.99 3.3;
#X obj 633 118 mode 395.5 1.99 2.97 3.3;
#X obj 638 182 mode 444.1 1.99 2.98 3.3;
#X obj 524 82 r \$0-notevel1;
#X obj 534 142 r \$0-notevel2;
#X obj 539 202 r \$0-notevel3;
#X obj 752 42 r \$0-notevel4;
#X obj 774 98 r \$0-notevel5;
#X obj 779 161 r \$0-notevel6;
#X connect 1 0 103 0;
#X connect 2 0 104 0;
#X connect 3 0 102 0;
#X connect 4 0 105 0;
#X connect 5 0 106 0;
#X connect 6 0 107 0;
#X connect 7 0 100 0;
#X connect 16 0 29 0;
#X connect 17 0 23 0;
#X connect 17 1 18 0;
#X connect 18 0 52 0;
#X connect 19 0 18 1;
#X connect 20 0 26 0;
#X connect 21 0 53 0;
#X connect 22 0 21 1;
#X connect 23 0 20 0;
#X connect 23 1 52 0;
#X connect 23 2 22 0;
#X connect 24 0 29 0;
#X connect 25 0 29 0;
#X connect 26 0 21 1;
#X connect 26 1 18 1;
#X connect 27 0 31 0;
#X connect 28 0 25 0;
#X connect 29 0 17 0;
#X connect 31 0 50 0;
#X connect 32 0 33 0;
#X connect 33 0 51 0;
#X connect 34 0 35 0;
#X connect 35 0 38 0;
#X connect 36 0 37 0;
#X connect 37 0 48 0;
#X connect 39 0 40 0;
#X connect 40 0 41 0;
#X connect 42 0 43 0;
#X connect 43 0 46 0;
#X connect 44 0 45 0;
#X connect 45 0 47 0;
#X connect 52 0 21 0;
#X connect 53 0 32 0;
#X connect 53 1 27 0;
#X connect 53 2 36 0;
#X connect 53 3 34 0;
#X connect 53 4 39 0;
#X connect 53 5 42 0;
#X connect 53 6 44 0;
#X connect 53 7 54 0;
#X connect 53 8 55 0;
#X connect 53 9 19 0;
#X connect 54 0 60 0;
#X connect 54 0 88 0;
#X connect 56 0 67 0;
#X connect 57 0 68 0;
#X connect 58 0 59 0;
#X connect 60 0 61 0;
#X connect 61 0 58 0;
#X connect 62 1 64 0;
#X connect 63 0 62 0;
#X connect 64 0 66 0;
#X connect 64 1 65 0;
#X connect 65 0 81 0;
#X connect 65 0 87 0;
#X connect 67 0 0 0;
#X connect 67 0 0 1;
#X connect 68 0 69 0;
#X connect 68 0 69 1;
#X connect 70 0 67 1;
#X connect 71 0 68 1;
#X connect 73 0 72 0;
#X connect 74 0 77 0;
#X connect 76 0 74 0;
#X connect 76 1 74 1;
#X connect 77 0 78 0;
#X connect 78 0 79 0;
#X connect 80 0 62 0;
#X connect 81 0 82 0;
#X connect 82 0 83 0;
#X connect 84 0 87 0;
#X connect 84 0 81 0;
#X connect 85 0 86 0;
#X connect 87 0 85 0;
#X connect 88 0 84 0;
#X connect 89 0 103 1;
#X connect 90 0 104 1;
#X connect 91 0 102 1;
#X connect 92 0 105 1;
#X connect 93 0 106 1;
#X connect 94 0 107 1;
#X connect 95 0 100 1;
#X connect 97 0 98 0;
#X connect 98 0 96 0;
#X connect 100 0 57 0;
#X connect 101 0 100 2;
#X connect 102 0 56 0;
#X connect 103 0 56 0;
#X connect 104 0 56 0;
#X connect 105 0 57 0;
#X connect 106 0 57 0;
#X connect 107 0 57 0;
#X connect 108 0 103 2;
#X connect 109 0 104 2;
#X connect 110 0 102 2;
#X connect 111 0 105 2;
#X connect 112 0 106 2;
#X connect 113 0 107 2;
