#N canvas 459 201 554 518 10;
#X msg 393 64 100;
#X obj 38 435 dac~;
#X obj 43 376 *~;
#X obj 43 395 *~ 0.1;
#X obj 22 9 adc~;
#X obj 366 43 noteonoff;
#X obj 366 24 r \$0-notein;
#X msg 243 24 thresh 2.5 5;
#X obj 243 67 bonk~;
#X obj 270 87 unpack 0 0 0;
#X floatatom 304 108 5 0 0 0 - - -, f 5;
#X floatatom 304 144 5 0 0 0 - - -, f 5;
#X obj 304 124 / 200;
#X obj 270 108 bng 15 250 50 0 empty empty empty 17 7 0 10 -262144
-1 -1;
#X obj 304 161 s \$0-vel;
#X obj 270 182 s \$0-notein;
#X msg 253 45 minvel 100;
#X obj 58 356 r~ \$0-amplitude;
#X obj 366 103 s~ \$0-amplitude;
#X text 365 5 Amplitude envelope;
#X obj 43 232 mode 234.8 1.97 2.97 3.3;
#X obj 366 84 theadsr 50 100 0.5 1000;
#X connect 0 0 21 1;
#X connect 2 0 3 0;
#X connect 3 0 1 0;
#X connect 3 0 1 1;
#X connect 5 0 21 0;
#X connect 6 0 5 0;
#X connect 7 0 8 0;
#X connect 8 1 9 0;
#X connect 9 0 13 0;
#X connect 9 1 10 0;
#X connect 10 0 12 0;
#X connect 11 0 14 0;
#X connect 12 0 11 0;
#X connect 13 0 15 0;
#X connect 16 0 8 0;
#X connect 17 0 2 1;
#X connect 20 0 2 0;
#X connect 21 0 18 0;
