#N canvas 242 22 948 769 10;
#X obj 383 697 dac~;
#X obj 383 82 r \$0-note1;
#X obj 393 142 r \$0-note2;
#X obj 398 202 r \$0-note3;
#X obj 623 42 r \$0-note4;
#X obj 633 98 r \$0-note5;
#X obj 638 162 r \$0-note6;
#X obj 638 222 r \$0-note7;
#N canvas 396 304 807 242 notestrigger 0;
#X obj 13 20 r~ \$0-A0sig;
#X obj 213 20 r~ \$0-A1sig;
#X obj 373 20 r~ \$0-A6sig;
#X obj 553 20 r~ \$0-A2sig;
#X obj 13 130 r~ \$0-A5sig;
#X obj 213 130 r~ \$0-A3sig;
#X obj 373 130 r~ \$0-A4sig;
#X obj 373 210 s \$0-note7;
#X obj 373 150 onsetdetector;
#X obj 410 190 s \$0-vel7;
#X obj 13 150 onsetdetector;
#X obj 13 40 onsetdetector;
#X obj 213 40 onsetdetector;
#X obj 373 40 onsetdetector;
#X obj 553 40 onsetdetector;
#X obj 213 150 onsetdetector;
#X obj 448 170 s \$0-notevel7;
#X obj 213 210 s \$0-note6;
#X obj 250 190 s \$0-vel6;
#X obj 288 170 s \$0-notevel6;
#X obj 13 100 s \$0-note1;
#X obj 50 80 s \$0-vel1;
#X obj 88 60 s \$0-notevel1;
#X obj 213 100 s \$0-note2;
#X obj 250 80 s \$0-vel2;
#X obj 288 60 s \$0-notevel2;
#X obj 373 100 s \$0-note3;
#X obj 410 80 s \$0-vel3;
#X obj 448 60 s \$0-notevel3;
#X obj 553 100 s \$0-note4;
#X obj 590 80 s \$0-vel4;
#X obj 628 60 s \$0-notevel4;
#X obj 88 170 s \$0-notevel5;
#X obj 50 190 s \$0-vel5;
#X obj 13 210 s \$0-note5;
#X connect 0 0 11 0;
#X connect 1 0 12 0;
#X connect 2 0 13 0;
#X connect 3 0 14 0;
#X connect 4 0 10 0;
#X connect 5 0 15 0;
#X connect 6 0 8 0;
#X connect 8 0 7 0;
#X connect 8 1 9 0;
#X connect 8 2 16 0;
#X connect 10 0 34 0;
#X connect 10 1 33 0;
#X connect 10 2 32 0;
#X connect 11 0 20 0;
#X connect 11 1 21 0;
#X connect 11 2 22 0;
#X connect 12 0 23 0;
#X connect 12 1 24 0;
#X connect 12 2 25 0;
#X connect 13 0 26 0;
#X connect 13 1 27 0;
#X connect 13 2 28 0;
#X connect 14 0 29 0;
#X connect 14 1 30 0;
#X connect 14 2 31 0;
#X connect 15 0 17 0;
#X connect 15 1 18 0;
#X connect 15 2 19 0;
#X restore 368 20 pd notestrigger;
#X text 392 128 D4;
#X text 396 184 E4;
#X text 621 27 F4;
#X text 633 81 G4;
#X text 638 146 A4;
#X text 383 64 C4;
#X text 638 205 B4;
#X msg 91 103 close;
#X obj 50 155 select 192;
#X obj 107 266 spigot;
#X msg 140 243 0;
#X msg 50 204 1;
#X obj 69 316 spigot;
#X msg 102 196 0;
#X obj 50 179 t b b b;
#X msg 50 34 devices;
#X msg 91 79 open \$1;
#X obj 50 226 t f f;
#X floatatom 83 673 5 0 0 0 - - -, f 5;
#X obj 91 58 hradio 15 1 0 9 empty empty empty 0 -8 0 10 -262144 -1
-1 0;
#X obj 50 133 comport 8 38400;
#X text 42 9 Receiving Arduino;
#X obj 83 689 sig~;
#X floatatom 69 730 5 0 0 0 - - -, f 5;
#X obj 69 746 sig~;
#X floatatom 118 563 5 0 0 0 - - -, f 5;
#X obj 118 579 sig~;
#X floatatom 101 618 5 0 0 0 - - -, f 5;
#X obj 101 634 sig~;
#X obj 118 599 s~ \$0-A3sig;
#X floatatom 134 503 5 0 0 0 - - -, f 5;
#X obj 134 519 sig~;
#X obj 134 539 s~ \$0-A4sig;
#X floatatom 150 444 5 0 0 0 - - -, f 5;
#X obj 150 460 sig~;
#X floatatom 167 388 5 0 0 0 - - -, f 5;
#X obj 167 404 sig~;
#X obj 150 480 s~ \$0-A5sig;
#X obj 167 424 s~ \$0-A6sig;
#X obj 101 654 s~ \$0-A2sig;
#X obj 30 376 print;
#X obj 83 709 s~ \$0-A1sig;
#X obj 69 766 s~ \$0-A0sig;
#X obj 69 296 repack 16;
#N canvas 140 42 758 675 -------values--------- 0;
#X obj 13 8 inlet;
#X obj 12 622 outlet;
#X obj 13 414 t f b;
#X obj 28 555 * 128;
#X obj 13 576 +;
#X floatatom 13 598 5 0 0 0 - - -, f 5;
#X obj 58 486 * 128;
#X obj 43 507 +;
#X floatatom 43 529 5 0 0 0 - - -, f 5;
#X obj 89 415 * 128;
#X obj 74 436 +;
#X floatatom 74 458 5 0 0 0 - - -, f 5;
#X obj 69 622 outlet;
#X obj 124 623 outlet;
#X obj 508 622 outlet;
#X obj 121 333 * 128;
#X obj 105 354 +;
#X floatatom 105 376 5 0 0 0 - - -, f 5;
#X obj 152 260 * 128;
#X obj 136 281 +;
#X floatatom 136 303 5 0 0 0 - - -, f 5;
#X obj 183 194 * 128;
#X obj 167 215 +;
#X floatatom 167 237 5 0 0 0 - - -, f 5;
#X obj 214 127 * 128;
#X obj 198 148 +;
#X floatatom 198 170 5 0 0 0 - - -, f 5;
#X obj 173 623 outlet;
#X obj 230 623 outlet;
#X obj 285 624 outlet;
#X obj 338 623 outlet;
#X floatatom 391 120 5 0 0 0 - - -, f 5;
#X obj 13 40 unpack f f f f f f f f f f f f f f f f;
#X floatatom 445 120 5 0 0 0 - - -, f 5;
#X obj 391 623 outlet;
#X obj 445 623 outlet;
#X connect 0 0 32 0;
#X connect 2 0 4 0;
#X connect 2 1 14 0;
#X connect 3 0 4 1;
#X connect 4 0 5 0;
#X connect 5 0 1 0;
#X connect 6 0 7 1;
#X connect 7 0 8 0;
#X connect 8 0 12 0;
#X connect 9 0 10 1;
#X connect 10 0 11 0;
#X connect 11 0 13 0;
#X connect 15 0 16 1;
#X connect 16 0 17 0;
#X connect 17 0 27 0;
#X connect 18 0 19 1;
#X connect 19 0 20 0;
#X connect 20 0 28 0;
#X connect 21 0 22 1;
#X connect 22 0 23 0;
#X connect 23 0 29 0;
#X connect 24 0 25 1;
#X connect 25 0 26 0;
#X connect 26 0 30 0;
#X connect 31 0 34 0;
#X connect 32 0 2 0;
#X connect 32 1 3 0;
#X connect 32 2 7 0;
#X connect 32 3 6 0;
#X connect 32 4 10 0;
#X connect 32 5 9 0;
#X connect 32 6 16 0;
#X connect 32 7 15 0;
#X connect 32 8 19 0;
#X connect 32 9 18 0;
#X connect 32 10 22 0;
#X connect 32 11 21 0;
#X connect 32 12 25 0;
#X connect 32 13 24 0;
#X connect 32 14 31 0;
#X connect 32 15 33 0;
#X connect 33 0 35 0;
#X restore 69 366 pd -------values---------;
#X obj 383 245 *~ 0.3;
#X obj 623 265 *~ 0.3;
#X obj 383 677 *~;
#X obj 398 657 r \$0-soundonoff;
#X obj 238 137 s \$0-soundonoff;
#X obj 238 120 tgl 15 0 empty empty empty 17 7 0 10 -262144 -1 -1 0
1;
#X obj 453 82 r \$0-vel1;
#X obj 464 142 r \$0-vel2;
#X obj 468 202 r \$0-vel3;
#X obj 687 42 r \$0-vel4;
#X obj 703 98 r \$0-vel5;
#X obj 708 162 r \$0-vel6;
#X obj 706 222 r \$0-vel7;
#X obj 211 232 s GLOBAL_killnotes;
#X obj 211 188 key;
#X obj 211 210 sel 32;
#X text 208 167 SPACE kills notes;
#X obj 638 242 mode 490.2 1.96 2.94 3.3;
#X obj 779 222 r \$0-notevel7;
#X obj 398 222 mode 334.6 1.98 2.97 3.3;
#X obj 383 102 mode 257.9 1.97 2.97 3.3;
#X obj 393 162 mode 297.1 1.99 2.98 3.3;
#X obj 623 62 mode 352 1.99 2.99 3.3;
#X obj 633 118 mode 395.5 1.99 2.97 3.3;
#X obj 638 182 mode 444.1 1.99 2.98 3.3;
#X obj 524 82 r \$0-notevel1;
#X obj 534 142 r \$0-notevel2;
#X obj 539 202 r \$0-notevel3;
#X obj 752 42 r \$0-notevel4;
#X obj 774 98 r \$0-notevel5;
#X obj 779 161 r \$0-notevel6;
#X obj 344 450 f;
#N canvas 0 22 450 300 reverb2 0;
#X floatatom 99 122 0 0 120 0 - - -;
#X text 140 122 level \, dB;
#X floatatom 134 144 0 0 100 0 - - -;
#X text 175 144 liveness \, 0-100;
#X floatatom 169 168 4 0 5000 0 - - -, f 4;
#X floatatom 204 191 0 0 100 0 - - -;
#X text 217 166 crossover frequency \, Hz.;
#X text 240 193 HF damping \, percent;
#X obj 29 217 rev3~ 100 90 3000 20;
#X connect 0 0 8 2;
#X connect 2 0 8 3;
#X connect 4 0 8 4;
#X connect 5 0 8 5;
#X restore 815 371 pd reverb2;
#X obj 825 266 tgl 15 0 empty empty empty 17 7 0 10 -262144 -1 -1 0
1;
#N canvas 170 140 891 482 accelerometer_mapping 0;
#X obj 28 17 inlet X;
#X obj 138 17 inlet Y;
#X obj 28 146 -;
#X obj 28 168 abs;
#X obj 28 188 mapping/max_n 20;
#X obj 43 126 pipe 400;
#X obj 28 208 s \$0-Xdiff;
#X obj 138 208 s \$0-Ydiff;
#X floatatom 28 62 5 0 0 0 - - -, f 5;
#X obj 28 40 mavg 30;
#X obj 28 81 i;
#X floatatom 28 103 5 0 0 0 - - -, f 5;
#X obj 138 146 -;
#X obj 138 168 abs;
#X obj 138 188 mapping/max_n 20;
#X obj 153 126 pipe 400;
#X floatatom 138 62 5 0 0 0 - - -, f 5;
#X obj 138 40 mavg 30;
#X obj 138 81 i;
#X floatatom 138 103 5 0 0 0 - - -, f 5;
#X obj 298 17 r \$0-Xdiff;
#X floatatom 714 99 5 0 0 0 - - -, f 5;
#X obj 658 188 purepd/once;
#X obj 633 266 line;
#X obj 633 229 tgl 15 0 empty empty empty 17 7 0 10 -262144 -1 -1 1
1;
#X msg 588 191 0;
#X obj 588 57 mavg 10;
#X obj 588 77 moses 50;
#X obj 508 18 r \$0-Ydiff;
#X obj 633 286 outlet;
#X obj 658 119 spigot;
#X msg 658 141 bang;
#X obj 678 163 pipe 800;
#X obj 691 101 tgl 15 0 empty empty empty 17 7 0 10 -262144 -1 -1 0
1;
#X msg 633 246 \$1 60;
#X obj 669 209 bng 15 250 50 0 empty empty empty 17 7 0 10 -262144
-1 -1;
#X obj 588 119 spigot;
#X msg 588 141 bang;
#X obj 598 163 pipe 800;
#X obj 621 101 tgl 15 0 empty empty empty 17 7 0 10 -262144 -1 -1 0
1;
#X obj 700 55 loadbang;
#X floatatom 528 160 5 0 0 0 - - -, f 5;
#X floatatom 548 99 5 0 0 0 - - -, f 5;
#X floatatom 563 215 5 0 0 0 - - -, f 5;
#X obj 219 285 spigot;
#X floatatom 219 307 5 0 0 0 - - -, f 5;
#X floatatom 219 348 5 0 0 0 - - -, f 5;
#X floatatom 264 348 5 0 0 0 - - -, f 5;
#X obj 219 326 moses 50;
#X obj 219 371 bng 15 250 50 0 empty empty empty 17 7 0 10 -262144
-1 -1;
#X obj 264 372 bng 15 250 50 0 empty empty empty 17 7 0 10 -262144
-1 -1;
#X obj 219 416 purepd/once;
#X obj 314 416 purepd/once;
#X obj 314 435 bng 15 250 50 0 empty empty empty 17 7 0 10 -262144
-1 -1;
#X obj 219 435 bng 15 250 50 0 empty empty empty 17 7 0 10 -262144
-1 -1;
#X obj 298 37 mavg 10;
#X obj 298 57 moses 50;
#X floatatom 298 79 5 0 0 0 - - -, f 5;
#X floatatom 343 78 5 0 0 0 - - -, f 5;
#X obj 375 164 spigot;
#X msg 385 186 bang;
#X obj 385 206 delay 600;
#X obj 408 146 tgl 15 0 empty empty empty 17 7 0 10 -262144 -1 -1 0
1;
#X obj 375 235 purepd/once;
#X connect 0 0 9 0;
#X connect 1 0 17 0;
#X connect 2 0 3 0;
#X connect 3 0 4 0;
#X connect 4 0 6 0;
#X connect 5 0 2 1;
#X connect 8 0 10 0;
#X connect 9 0 8 0;
#X connect 10 0 11 0;
#X connect 11 0 2 0;
#X connect 11 0 5 0;
#X connect 12 0 13 0;
#X connect 13 0 14 0;
#X connect 14 0 7 0;
#X connect 15 0 12 1;
#X connect 16 0 18 0;
#X connect 17 0 16 0;
#X connect 18 0 19 0;
#X connect 19 0 12 0;
#X connect 19 0 15 0;
#X connect 20 0 55 0;
#X connect 22 0 24 0;
#X connect 22 0 35 0;
#X connect 23 0 29 0;
#X connect 24 0 34 0;
#X connect 25 0 24 0;
#X connect 25 0 43 0;
#X connect 26 0 27 0;
#X connect 27 0 36 0;
#X connect 27 0 42 0;
#X connect 27 1 21 0;
#X connect 27 1 30 0;
#X connect 30 0 31 0;
#X connect 31 0 32 0;
#X connect 31 0 22 0;
#X connect 32 0 33 0;
#X connect 33 0 30 1;
#X connect 34 0 23 0;
#X connect 36 0 37 0;
#X connect 36 0 41 0;
#X connect 37 0 38 0;
#X connect 37 0 25 0;
#X connect 37 0 22 1;
#X connect 38 0 39 0;
#X connect 39 0 36 1;
#X connect 40 0 33 0;
#X connect 40 0 39 0;
#X connect 44 0 45 0;
#X connect 45 0 48 0;
#X connect 46 0 49 0;
#X connect 47 0 50 0;
#X connect 48 0 46 0;
#X connect 48 1 47 0;
#X connect 49 0 51 0;
#X connect 49 0 52 1;
#X connect 50 0 52 0;
#X connect 50 0 51 1;
#X connect 51 0 54 0;
#X connect 52 0 53 0;
#X connect 55 0 56 0;
#X connect 56 0 57 0;
#X connect 56 1 58 0;
#X connect 59 0 60 0;
#X connect 59 0 63 0;
#X connect 60 0 61 0;
#X connect 61 0 62 0;
#X connect 62 0 59 1;
#X restore 445 457 pd accelerometer_mapping;
#X obj 263 470 s \$0-X_tomap;
#X obj 344 470 s \$0-Y_tomap;
#X obj 445 437 r \$0-X_tomap;
#X obj 586 437 r \$0-Y_tomap;
#X obj 263 450 f;
#X obj 383 287 *~;
#X obj 623 307 *~;
#X obj 398 267 r \$0-notesswitch;
#X obj 638 287 r \$0-notesswitch;
#X obj 481 333 s~ notesignal;
#X obj 383 585 r~ notesignal;
#N canvas 0 22 450 300 effects 0;
#X obj 14 15 inlet~;
#N canvas 297 113 578 339 phaser 0;
#X obj 95 105 rpole~;
#X obj 95 80 rzero_rev~;
#X obj 95 154 rpole~;
#X obj 95 129 rzero_rev~;
#X obj 95 202 rpole~;
#X obj 95 177 rzero_rev~;
#X obj 95 251 rpole~;
#X obj 95 226 rzero_rev~;
#X obj 72 281 +~;
#X obj 250 229 expr~ 1 - 0.03 - 0.6*abs($v1-0.5)*abs($v1-0.5);
#X obj 51 47 inlet~;
#X obj 72 303 outlet~;
#X obj 305 41 inlet;
#X obj 305 63 mapping/autoscale 0 1;
#X floatatom 325 85 5 0 0 0 - - -, f 5;
#X msg 305 105 \$1 100;
#X obj 250 197 phasor~ 0.3;
#X floatatom 305 127 5 0 0 0 - - -, f 5;
#X connect 0 0 3 0;
#X connect 1 0 0 0;
#X connect 2 0 5 0;
#X connect 3 0 2 0;
#X connect 4 0 7 0;
#X connect 5 0 4 0;
#X connect 6 0 8 1;
#X connect 7 0 6 0;
#X connect 8 0 11 0;
#X connect 9 0 1 1;
#X connect 9 0 0 1;
#X connect 9 0 3 1;
#X connect 9 0 2 1;
#X connect 9 0 5 1;
#X connect 9 0 4 1;
#X connect 9 0 7 1;
#X connect 9 0 6 1;
#X connect 10 0 1 0;
#X connect 10 0 8 0;
#X connect 12 0 13 0;
#X connect 13 0 14 0;
#X connect 13 0 15 0;
#X connect 15 0 17 0;
#X connect 16 0 9 0;
#X restore 234 45 pd phaser;
#X obj 234 87 *~;
#X obj 15 181 dac~;
#X obj 36 122 rev3~ 100 90 3000 20;
#X obj 36 144 *~;
#X obj 76 144 *~;
#X connect 1 0 2 0;
#X connect 2 0 3 0;
#X connect 2 0 3 1;
#X connect 4 0 5 0;
#X connect 4 1 6 0;
#X connect 5 0 3 0;
#X connect 6 0 3 1;
#X restore 677 457 pd effects;
#X obj 677 437 r~ notesignal;
#X obj 772 568 delay 2000;
#X obj 772 608 s \$0-ARDUINOGATE;
#X obj 772 588 tgl 15 0 empty empty empty 17 7 0 10 -262144 -1 -1 0
1;
#X obj 69 338 spigot;
#X obj 115 338 r \$0-ARDUINOGATE;
#X obj 150 100 s \$0-firstARDUINOvalue;
#X obj 772 528 r \$0-firstARDUINOvalue;
#X msg 772 548 bang;
#X obj 150 79 sel 1;
#X connect 1 0 74 0;
#X connect 2 0 75 0;
#X connect 3 0 73 0;
#X connect 4 0 76 0;
#X connect 5 0 77 0;
#X connect 6 0 78 0;
#X connect 7 0 71 0;
#X connect 16 0 29 0;
#X connect 17 0 23 0;
#X connect 17 1 18 0;
#X connect 18 0 52 0;
#X connect 19 0 18 1;
#X connect 20 0 26 0;
#X connect 21 0 105 0;
#X connect 22 0 21 1;
#X connect 23 0 20 0;
#X connect 23 1 52 0;
#X connect 23 2 22 0;
#X connect 24 0 29 0;
#X connect 25 0 29 0;
#X connect 26 0 21 1;
#X connect 26 1 18 1;
#X connect 27 0 31 0;
#X connect 28 0 25 0;
#X connect 28 0 110 0;
#X connect 29 0 17 0;
#X connect 31 0 50 0;
#X connect 32 0 33 0;
#X connect 33 0 51 0;
#X connect 34 0 35 0;
#X connect 35 0 38 0;
#X connect 36 0 37 0;
#X connect 37 0 48 0;
#X connect 39 0 40 0;
#X connect 40 0 41 0;
#X connect 42 0 43 0;
#X connect 43 0 46 0;
#X connect 44 0 45 0;
#X connect 45 0 47 0;
#X connect 52 0 21 0;
#X connect 53 0 32 0;
#X connect 53 1 27 0;
#X connect 53 2 36 0;
#X connect 53 3 34 0;
#X connect 53 4 39 0;
#X connect 53 5 42 0;
#X connect 53 6 44 0;
#X connect 53 7 93 0;
#X connect 53 8 85 0;
#X connect 53 9 19 0;
#X connect 54 0 94 0;
#X connect 55 0 95 0;
#X connect 56 0 0 0;
#X connect 56 0 0 1;
#X connect 57 0 56 1;
#X connect 59 0 58 0;
#X connect 60 0 74 1;
#X connect 61 0 75 1;
#X connect 62 0 73 1;
#X connect 63 0 76 1;
#X connect 64 0 77 1;
#X connect 65 0 78 1;
#X connect 66 0 71 1;
#X connect 68 0 69 0;
#X connect 69 0 67 0;
#X connect 71 0 55 0;
#X connect 72 0 71 2;
#X connect 73 0 54 0;
#X connect 74 0 54 0;
#X connect 75 0 54 0;
#X connect 76 0 55 0;
#X connect 77 0 55 0;
#X connect 78 0 55 0;
#X connect 79 0 74 2;
#X connect 80 0 75 2;
#X connect 81 0 73 2;
#X connect 82 0 76 2;
#X connect 83 0 77 2;
#X connect 84 0 78 2;
#X connect 85 0 90 0;
#X connect 87 0 71 2;
#X connect 91 0 88 0;
#X connect 92 0 88 1;
#X connect 93 0 89 0;
#X connect 94 0 98 0;
#X connect 95 0 98 0;
#X connect 96 0 94 1;
#X connect 97 0 95 1;
#X connect 99 0 56 0;
#X connect 101 0 100 0;
#X connect 102 0 104 0;
#X connect 104 0 103 0;
#X connect 105 0 53 0;
#X connect 106 0 105 1;
#X connect 108 0 109 0;
#X connect 109 0 102 0;
#X connect 110 0 107 0;
