#N canvas 443 215 789 502 10;
#X obj 38 295 dac~;
#X obj 43 255 *~ 0.1;
#X obj 22 9 adc~;
#X obj 43 132 r \$0-note1;
#X obj 53 172 r \$0-note2;
#X obj 58 212 r \$0-note3;
#X obj 238 355 dac~;
#X obj 243 315 *~ 0.1;
#X obj 243 132 r \$0-note4;
#X obj 253 172 r \$0-note5;
#X obj 258 212 r \$0-note6;
#X obj 268 252 r \$0-note7;
#N canvas 0 22 1030 304 notestrigger 0;
#X msg 63 9 thresh 2.5 5;
#X obj 63 52 bonk~;
#X obj 90 72 unpack 0 0 0;
#X floatatom 124 93 5 0 0 0 - - -, f 5;
#X floatatom 124 129 5 0 0 0 - - -, f 5;
#X obj 124 109 / 200;
#X obj 90 93 bng 15 250 50 0 empty empty empty 17 7 0 10 -262144 -1
-1;
#X obj 124 146 s \$0-vel;
#X msg 73 30 minvel 100;
#X obj 90 167 s \$0-note1;
#X msg 203 9 thresh 2.5 5;
#X obj 203 52 bonk~;
#X obj 230 72 unpack 0 0 0;
#X floatatom 264 93 5 0 0 0 - - -, f 5;
#X floatatom 264 129 5 0 0 0 - - -, f 5;
#X obj 264 109 / 200;
#X obj 230 93 bng 15 250 50 0 empty empty empty 17 7 0 10 -262144 -1
-1;
#X obj 264 146 s \$0-vel;
#X msg 213 30 minvel 100;
#X obj 230 167 s \$0-note2;
#X msg 313 9 thresh 2.5 5;
#X obj 313 52 bonk~;
#X obj 340 72 unpack 0 0 0;
#X floatatom 374 93 5 0 0 0 - - -, f 5;
#X floatatom 374 129 5 0 0 0 - - -, f 5;
#X obj 374 109 / 200;
#X obj 340 93 bng 15 250 50 0 empty empty empty 17 7 0 10 -262144 -1
-1;
#X obj 374 146 s \$0-vel;
#X msg 323 30 minvel 100;
#X obj 340 167 s \$0-note3;
#X msg 443 9 thresh 2.5 5;
#X obj 443 52 bonk~;
#X obj 470 72 unpack 0 0 0;
#X floatatom 504 93 5 0 0 0 - - -, f 5;
#X floatatom 504 129 5 0 0 0 - - -, f 5;
#X obj 504 109 / 200;
#X obj 470 93 bng 15 250 50 0 empty empty empty 17 7 0 10 -262144 -1
-1;
#X obj 504 146 s \$0-vel;
#X msg 453 30 minvel 100;
#X msg 583 9 thresh 2.5 5;
#X obj 583 52 bonk~;
#X obj 610 72 unpack 0 0 0;
#X floatatom 644 93 5 0 0 0 - - -, f 5;
#X floatatom 644 129 5 0 0 0 - - -, f 5;
#X obj 644 109 / 200;
#X obj 610 93 bng 15 250 50 0 empty empty empty 17 7 0 10 -262144 -1
-1;
#X obj 644 146 s \$0-vel;
#X msg 593 30 minvel 100;
#X msg 693 9 thresh 2.5 5;
#X obj 693 52 bonk~;
#X obj 720 72 unpack 0 0 0;
#X floatatom 754 93 5 0 0 0 - - -, f 5;
#X floatatom 754 129 5 0 0 0 - - -, f 5;
#X obj 754 109 / 200;
#X obj 720 93 bng 15 250 50 0 empty empty empty 17 7 0 10 -262144 -1
-1;
#X obj 754 146 s \$0-vel;
#X msg 703 30 minvel 100;
#X msg 823 9 thresh 2.5 5;
#X obj 823 52 bonk~;
#X obj 850 72 unpack 0 0 0;
#X floatatom 884 93 5 0 0 0 - - -, f 5;
#X floatatom 884 129 5 0 0 0 - - -, f 5;
#X obj 884 109 / 200;
#X obj 850 93 bng 15 250 50 0 empty empty empty 17 7 0 10 -262144 -1
-1;
#X obj 884 146 s \$0-vel;
#X msg 833 30 minvel 100;
#X obj 470 167 s \$0-note4;
#X obj 610 167 s \$0-note5;
#X obj 720 167 s \$0-note6;
#X obj 850 167 s \$0-note7;
#X connect 0 0 1 0;
#X connect 1 1 2 0;
#X connect 2 0 6 0;
#X connect 2 1 3 0;
#X connect 3 0 5 0;
#X connect 4 0 7 0;
#X connect 5 0 4 0;
#X connect 6 0 9 0;
#X connect 8 0 1 0;
#X connect 10 0 11 0;
#X connect 11 1 12 0;
#X connect 12 0 16 0;
#X connect 12 1 13 0;
#X connect 13 0 15 0;
#X connect 14 0 17 0;
#X connect 15 0 14 0;
#X connect 16 0 19 0;
#X connect 18 0 11 0;
#X connect 20 0 21 0;
#X connect 21 1 22 0;
#X connect 22 0 26 0;
#X connect 22 1 23 0;
#X connect 23 0 25 0;
#X connect 24 0 27 0;
#X connect 25 0 24 0;
#X connect 26 0 29 0;
#X connect 28 0 21 0;
#X connect 30 0 31 0;
#X connect 31 1 32 0;
#X connect 32 0 36 0;
#X connect 32 1 33 0;
#X connect 33 0 35 0;
#X connect 34 0 37 0;
#X connect 35 0 34 0;
#X connect 36 0 66 0;
#X connect 38 0 31 0;
#X connect 39 0 40 0;
#X connect 40 1 41 0;
#X connect 41 0 45 0;
#X connect 41 1 42 0;
#X connect 42 0 44 0;
#X connect 43 0 46 0;
#X connect 44 0 43 0;
#X connect 45 0 67 0;
#X connect 47 0 40 0;
#X connect 48 0 49 0;
#X connect 49 1 50 0;
#X connect 50 0 54 0;
#X connect 50 1 51 0;
#X connect 51 0 53 0;
#X connect 52 0 55 0;
#X connect 53 0 52 0;
#X connect 54 0 68 0;
#X connect 56 0 49 0;
#X connect 57 0 58 0;
#X connect 58 1 59 0;
#X connect 59 0 63 0;
#X connect 59 1 60 0;
#X connect 60 0 62 0;
#X connect 61 0 64 0;
#X connect 62 0 61 0;
#X connect 63 0 69 0;
#X connect 65 0 58 0;
#X restore 88 20 pd notestrigger;
#X text 126 170 D4;
#X text 130 214 E4;
#X text 309 131 F4;
#X text 324 171 G4;
#X text 328 211 A4;
#X text 113 134 C4;
#X text 338 252 B4;
#X obj 268 272 mode 490.2 1.96 2.94 3.3;
#X obj 43 152 mode 257.9 1.97 2.97 3.3;
#X obj 53 192 mode 297.1 1.99 2.98 3.3;
#X obj 58 232 mode 334.6 1.98 2.97 3.3;
#X obj 243 152 mode 352 1.99 2.99 3.3;
#X obj 253 192 mode 395.5 1.99 2.97 3.3;
#X obj 258 232 mode 444.1 1.99 2.98 3.3;
#X connect 1 0 0 0;
#X connect 1 0 0 1;
#X connect 3 0 21 0;
#X connect 4 0 22 0;
#X connect 5 0 23 0;
#X connect 7 0 6 0;
#X connect 7 0 6 1;
#X connect 8 0 24 0;
#X connect 9 0 25 0;
#X connect 10 0 26 0;
#X connect 11 0 20 0;
#X connect 20 0 7 0;
#X connect 21 0 1 0;
#X connect 22 0 1 0;
#X connect 23 0 1 0;
#X connect 24 0 7 0;
#X connect 25 0 7 0;
#X connect 26 0 7 0;
