#N canvas 203 9 799 765 10;
#X obj 378 295 dac~;
#X obj 383 255 *~ 0.1;
#X obj 383 132 r \$0-note1;
#X obj 393 172 r \$0-note2;
#X obj 398 212 r \$0-note3;
#X obj 578 355 dac~;
#X obj 583 315 *~ 0.1;
#X obj 583 132 r \$0-note4;
#X obj 593 172 r \$0-note5;
#X obj 598 212 r \$0-note6;
#X obj 608 252 r \$0-note7;
#N canvas 565 444 419 188 notestrigger 0;
#X obj 13 40 onsetdetector;
#X obj 13 20 r~ \$0-A0sig;
#X obj 13 60 s \$0-note1;
#X obj 103 40 onsetdetector;
#X obj 193 40 onsetdetector;
#X obj 283 40 onsetdetector;
#X obj 13 110 onsetdetector;
#X obj 103 110 onsetdetector;
#X obj 193 110 onsetdetector;
#X obj 103 60 s \$0-note2;
#X obj 193 60 s \$0-note3;
#X obj 283 60 s \$0-note4;
#X obj 13 130 s \$0-note5;
#X obj 103 130 s \$0-note5;
#X obj 193 130 s \$0-note6;
#X obj 103 20 r~ \$0-A1sig;
#X obj 193 20 r~ \$0-A6sig;
#X obj 283 20 r~ \$0-A2sig;
#X obj 13 90 r~ \$0-A5sig;
#X obj 103 90 r~ \$0-A3sig;
#X obj 193 90 r~ \$0-A4sig;
#X connect 0 0 2 0;
#X connect 1 0 0 0;
#X connect 3 0 9 0;
#X connect 4 0 10 0;
#X connect 5 0 11 0;
#X connect 6 0 12 0;
#X connect 7 0 13 0;
#X connect 8 0 14 0;
#X connect 15 0 3 0;
#X connect 16 0 4 0;
#X connect 17 0 5 0;
#X connect 18 0 6 0;
#X connect 19 0 7 0;
#X connect 20 0 8 0;
#X restore 368 50 pd notestrigger;
#X text 466 170 D4;
#X text 470 214 E4;
#X text 649 131 F4;
#X text 664 171 G4;
#X text 668 211 A4;
#X text 453 134 C4;
#X text 678 252 B4;
#X obj 608 272 mode 490.2 1.96 2.94 3.3;
#X obj 383 152 mode 257.9 1.97 2.97 3.3;
#X obj 393 192 mode 297.1 1.99 2.98 3.3;
#X obj 398 232 mode 334.6 1.98 2.97 3.3;
#X obj 583 152 mode 352 1.99 2.99 3.3;
#X obj 593 192 mode 395.5 1.99 2.97 3.3;
#X obj 598 232 mode 444.1 1.99 2.98 3.3;
#X msg 91 103 close;
#X obj 50 155 select 192;
#X obj 107 266 spigot;
#X msg 140 243 0;
#X msg 50 204 1;
#X obj 69 316 spigot;
#X msg 102 196 0;
#X obj 50 179 t b b b;
#X msg 50 34 devices;
#X msg 91 79 open \$1;
#X obj 50 226 t f f;
#X floatatom 83 653 5 0 0 0 - - -, f 5;
#X obj 91 58 hradio 15 1 0 9 empty empty empty 0 -8 0 10 -262144 -1
-1 1;
#X obj 50 133 comport 8 38400;
#N canvas 564 30 558 669 -----values--- 0;
#X obj 93 18 inlet;
#X obj 92 572 outlet;
#X obj 93 364 t f b;
#X obj 108 505 * 128;
#X obj 93 526 +;
#X floatatom 93 548 5 0 0 0 - - -, f 5;
#X obj 138 436 * 128;
#X obj 123 457 +;
#X floatatom 123 479 5 0 0 0 - - -, f 5;
#X obj 169 365 * 128;
#X obj 154 386 +;
#X floatatom 154 408 5 0 0 0 - - -, f 5;
#X obj 149 572 outlet;
#X obj 204 573 outlet;
#X obj 498 572 outlet;
#X obj 201 283 * 128;
#X obj 185 304 +;
#X floatatom 185 326 5 0 0 0 - - -, f 5;
#X obj 93 50 unpack f f f f f f f f f f f f f f;
#X obj 232 210 * 128;
#X obj 216 231 +;
#X floatatom 216 253 5 0 0 0 - - -, f 5;
#X obj 263 144 * 128;
#X obj 247 165 +;
#X floatatom 247 187 5 0 0 0 - - -, f 5;
#X obj 294 77 * 128;
#X obj 278 98 +;
#X floatatom 278 120 5 0 0 0 - - -, f 5;
#X obj 253 573 outlet;
#X obj 310 573 outlet;
#X obj 365 574 outlet;
#X obj 418 573 outlet;
#X connect 0 0 18 0;
#X connect 2 0 4 0;
#X connect 2 1 14 0;
#X connect 3 0 4 1;
#X connect 4 0 5 0;
#X connect 5 0 1 0;
#X connect 6 0 7 1;
#X connect 7 0 8 0;
#X connect 8 0 12 0;
#X connect 9 0 10 1;
#X connect 10 0 11 0;
#X connect 11 0 13 0;
#X connect 15 0 16 1;
#X connect 16 0 17 0;
#X connect 17 0 28 0;
#X connect 18 0 2 0;
#X connect 18 1 3 0;
#X connect 18 2 7 0;
#X connect 18 3 6 0;
#X connect 18 4 10 0;
#X connect 18 5 9 0;
#X connect 18 6 16 0;
#X connect 18 7 15 0;
#X connect 18 8 20 0;
#X connect 18 9 19 0;
#X connect 18 10 23 0;
#X connect 18 11 22 0;
#X connect 18 12 26 0;
#X connect 18 13 25 0;
#X connect 19 0 20 1;
#X connect 20 0 21 0;
#X connect 21 0 29 0;
#X connect 22 0 23 1;
#X connect 23 0 24 0;
#X connect 24 0 30 0;
#X connect 25 0 26 1;
#X connect 26 0 27 0;
#X connect 27 0 31 0;
#X restore 69 336 pd -----values---;
#X obj 69 296 repack 14;
#X text 42 9 Receiving Arduino;
#X obj 83 669 sig~;
#X obj 83 689 s~ \$0-A0sig;
#X floatatom 69 710 5 0 0 0 - - -, f 5;
#X obj 69 726 sig~;
#X obj 69 746 s~ \$0-A1sig;
#X floatatom 111 533 5 0 0 0 - - -, f 5;
#X obj 111 549 sig~;
#X floatatom 97 593 5 0 0 0 - - -, f 5;
#X obj 97 609 sig~;
#X obj 111 569 s~ \$0-A3sig;
#X floatatom 125 473 5 0 0 0 - - -, f 5;
#X obj 125 489 sig~;
#X obj 125 509 s~ \$0-A4sig;
#X floatatom 139 414 5 0 0 0 - - -, f 5;
#X obj 139 430 sig~;
#X floatatom 153 358 5 0 0 0 - - -, f 5;
#X obj 153 374 sig~;
#X obj 139 450 s~ \$0-A5sig;
#X obj 153 394 s~ \$0-A6sig;
#X obj 97 629 s~ \$0-A2sig;
#X connect 1 0 0 0;
#X connect 1 0 0 1;
#X connect 2 0 20 0;
#X connect 3 0 21 0;
#X connect 4 0 22 0;
#X connect 6 0 5 0;
#X connect 6 0 5 1;
#X connect 7 0 23 0;
#X connect 8 0 24 0;
#X connect 9 0 25 0;
#X connect 10 0 19 0;
#X connect 19 0 6 0;
#X connect 20 0 1 0;
#X connect 21 0 1 0;
#X connect 22 0 1 0;
#X connect 23 0 6 0;
#X connect 24 0 6 0;
#X connect 25 0 6 0;
#X connect 26 0 39 0;
#X connect 27 0 33 0;
#X connect 27 1 28 0;
#X connect 28 0 41 0;
#X connect 29 0 28 1;
#X connect 30 0 36 0;
#X connect 31 0 40 0;
#X connect 32 0 31 1;
#X connect 33 0 30 0;
#X connect 33 1 41 0;
#X connect 33 2 32 0;
#X connect 34 0 39 0;
#X connect 35 0 39 0;
#X connect 36 0 31 1;
#X connect 36 1 28 1;
#X connect 37 0 43 0;
#X connect 38 0 35 0;
#X connect 39 0 27 0;
#X connect 40 0 45 0;
#X connect 40 1 37 0;
#X connect 40 2 50 0;
#X connect 40 3 48 0;
#X connect 40 4 53 0;
#X connect 40 5 56 0;
#X connect 40 6 58 0;
#X connect 40 7 29 0;
#X connect 41 0 31 0;
#X connect 43 0 44 0;
#X connect 45 0 46 0;
#X connect 46 0 47 0;
#X connect 48 0 49 0;
#X connect 49 0 52 0;
#X connect 50 0 51 0;
#X connect 51 0 62 0;
#X connect 53 0 54 0;
#X connect 54 0 55 0;
#X connect 56 0 57 0;
#X connect 57 0 60 0;
#X connect 58 0 59 0;
#X connect 59 0 61 0;
