#N canvas 342 232 823 512 10;
#X obj 13 128 r \$0-freq;
#X obj 13 178 * 1;
#X obj 13 200 osc~;
#X obj 73 128 r \$0-freq;
#X obj 73 200 osc~;
#X obj 163 128 r \$0-freq;
#X obj 163 200 osc~;
#X obj 13 222 *~ 1;
#X obj 73 222 *~ 0.5;
#X obj 163 222 *~ 0.33;
#X obj 73 370 outlet~;
#X obj 263 200 osc~;
#X obj 263 128 r \$0-lfo;
#X text 18 8 creation arguments: fundamental frequency \, freq ratio
partial 2 \, freq ratio partial 3 \, AM rate (Hz);
#X obj 359 48 \$1;
#X obj 359 5 loadbang;
#X obj 419 48 \$2;
#X obj 489 48 \$3;
#X obj 549 48 \$4;
#X obj 359 70 s \$0-freq;
#X obj 549 70 s \$0-lfo;
#X obj 73 178 * 1.97;
#X obj 163 178 * 2.97;
#X obj 106 199 r \$0-p2a;
#X obj 106 158 r \$0-p2f;
#X obj 419 70 s \$0-p2f;
#X obj 489 70 s \$0-p3f;
#X obj 202 199 r \$0-p2f;
#X obj 196 158 r \$0-p3a;
#X obj 598 22 r \$0-p2a;
#X obj 654 22 r \$0-p2f;
#X obj 708 22 r \$0-lfo_a;
#X msg 284 177 0;
#X obj 263 221 *~ 1;
#X obj 22 56 inlet trigger;
#X obj 284 158 r \$0-trigger;
#X obj 73 350 *~;
#X obj 541 231 s~ \$0-amplitude;
#X obj 88 330 r~ \$0-amplitude;
#X obj 22 78 s \$0-notein;
#X obj 73 298 *~;
#X obj 300 199 r \$0-lfo_a;
#X obj 112 56 inlet velocity;
#X obj 112 78 s \$0-velocity;
#X obj 213 57 inlet trigvel;
#X obj 213 79 s \$0-noteinvel;
#X obj 561 171 noteonoff;
#X obj 541 131 r \$0-noteinvel;
#X msg 561 151 bang;
#X floatatom 541 191 5 0 0 0 - - -, f 5;
#X obj 541 208 theadsr2 50 100 0.5 1000;
#X connect 0 0 1 0;
#X connect 1 0 2 0;
#X connect 2 0 7 0;
#X connect 3 0 21 0;
#X connect 4 0 8 0;
#X connect 5 0 22 0;
#X connect 6 0 9 0;
#X connect 7 0 40 0;
#X connect 8 0 40 0;
#X connect 9 0 40 0;
#X connect 11 0 33 0;
#X connect 12 0 11 0;
#X connect 14 0 19 0;
#X connect 15 0 14 0;
#X connect 15 0 16 0;
#X connect 15 0 17 0;
#X connect 15 0 18 0;
#X connect 16 0 25 0;
#X connect 17 0 26 0;
#X connect 18 0 20 0;
#X connect 21 0 4 0;
#X connect 22 0 6 0;
#X connect 23 0 8 1;
#X connect 24 0 21 1;
#X connect 27 0 9 1;
#X connect 28 0 22 1;
#X connect 32 0 11 1;
#X connect 33 0 40 1;
#X connect 34 0 39 0;
#X connect 35 0 32 0;
#X connect 36 0 10 0;
#X connect 38 0 36 1;
#X connect 40 0 36 0;
#X connect 41 0 33 1;
#X connect 42 0 43 0;
#X connect 44 0 45 0;
#X connect 47 0 48 0;
#X connect 47 0 49 0;
#X connect 48 0 46 0;
#X connect 49 0 50 0;
#X connect 50 0 37 0;
