#N canvas 217 50 546 668 10;
#X msg 43 79 thresh 2.5 5;
#X obj 13 132 bonk~;
#X obj 40 162 unpack 0 0 0;
#X floatatom 74 183 5 0 0 0 - - -, f 5;
#X floatatom 154 607 5 0 0 0 - - -, f 5;
#X obj 40 183 bng 15 250 50 0 empty empty empty 17 7 0 10 -262144 -1
-1;
#X obj 40 438 purepd/once;
#X obj 50 229 f;
#X floatatom 50 251 5 0 0 0 - - -, f 5;
#X obj 103 251 f;
#X floatatom 103 273 5 0 0 0 - - -, f 5;
#X obj 103 321 ==;
#X floatatom 103 344 5 0 0 0 - - -, f 5;
#X obj 103 292 t b f;
#X obj 103 361 sel 1;
#X obj 103 381 bng 15 250 50 0 empty empty empty 17 7 0 10 -262144
-1 -1;
#X obj 103 401 t b b;
#X obj 13 40 inlet~;
#X obj 68 54 loadbang;
#X obj 40 578 outlet;
#X msg 53 100 minvel 300;
#X obj 103 229 delay 200;
#X obj 154 477 f;
#X obj 169 545 max;
#X obj 184 521 f;
#X obj 184 502 bng 15 250 50 0 empty empty empty 17 7 0 10 -262144
-1 -1;
#X floatatom 169 567 5 0 0 0 - - -, f 5;
#X obj 154 587 /;
#X obj 154 624 outlet;
#X text 307 384 normalize velocity between 0 and 1 \; Get maximum and
divide by it;
#X obj 245 281 purepd/once;
#X obj 308 241 bng 15 250 50 0 empty empty empty 17 7 0 10 -262144
-1 -1;
#X obj 308 261 t b b;
#X floatatom 245 343 5 0 0 0 - - -, f 5;
#X msg 336 308 0;
#X obj 260 412 max;
#X obj 275 388 f;
#X obj 275 369 bng 15 250 50 0 empty empty empty 17 7 0 10 -262144
-1 -1;
#X obj 245 452 outlet;
#X obj 245 432 /;
#X connect 1 1 2 0;
#X connect 2 0 5 0;
#X connect 2 1 3 0;
#X connect 3 0 7 1;
#X connect 3 0 9 1;
#X connect 4 0 28 0;
#X connect 5 0 7 0;
#X connect 5 0 6 0;
#X connect 5 0 21 0;
#X connect 6 0 19 0;
#X connect 6 0 22 0;
#X connect 7 0 8 0;
#X connect 8 0 11 0;
#X connect 8 0 22 1;
#X connect 8 0 30 0;
#X connect 9 0 10 0;
#X connect 10 0 13 0;
#X connect 11 0 12 0;
#X connect 12 0 14 0;
#X connect 13 0 11 0;
#X connect 13 1 11 1;
#X connect 14 0 15 0;
#X connect 14 0 31 0;
#X connect 15 0 16 0;
#X connect 16 0 6 1;
#X connect 16 1 19 0;
#X connect 17 0 1 0;
#X connect 18 0 0 0;
#X connect 18 0 20 0;
#X connect 20 0 1 0;
#X connect 21 0 9 0;
#X connect 22 0 23 0;
#X connect 22 0 25 0;
#X connect 22 0 27 0;
#X connect 23 0 24 1;
#X connect 23 0 26 0;
#X connect 24 0 23 1;
#X connect 25 0 24 0;
#X connect 26 0 27 1;
#X connect 27 0 4 0;
#X connect 30 0 33 0;
#X connect 31 0 32 0;
#X connect 32 0 30 1;
#X connect 32 1 34 0;
#X connect 33 0 37 0;
#X connect 33 0 35 0;
#X connect 33 0 39 0;
#X connect 34 0 33 0;
#X connect 35 0 36 1;
#X connect 35 0 39 1;
#X connect 36 0 35 1;
#X connect 37 0 36 0;
#X connect 39 0 38 0;
