#N canvas 0 22 546 668 10;
#X msg 73 99 thresh 2.5 5;
#X obj 63 142 bonk~;
#X obj 90 162 unpack 0 0 0;
#X floatatom 124 183 5 0 0 0 - - -, f 5;
#X floatatom 124 499 5 0 0 0 - - -, f 5;
#X obj 124 479 / 200;
#X obj 90 183 bng 15 250 50 0 empty empty empty 17 7 0 10 -262144 -1
-1;
#X obj 124 516 s \$0-vel;
#X obj 90 438 purepd/once;
#X obj 100 229 f;
#X floatatom 100 251 5 0 0 0 - - -, f 5;
#X obj 153 251 f;
#X floatatom 153 273 5 0 0 0 - - -, f 5;
#X obj 153 321 ==;
#X floatatom 153 344 5 0 0 0 - - -, f 5;
#X obj 153 229 delay 100;
#X msg 83 120 minvel 800;
#X obj 153 292 t b f;
#X obj 153 361 sel 1;
#X obj 153 381 bng 15 250 50 0 empty empty empty 17 7 0 10 -262144
-1 -1;
#X obj 153 401 t b b;
#X obj 63 50 inlet~;
#X obj 98 74 loadbang;
#X obj 90 538 outlet;
#X connect 0 0 1 0;
#X connect 1 1 2 0;
#X connect 2 0 6 0;
#X connect 2 1 3 0;
#X connect 3 0 5 0;
#X connect 3 0 9 1;
#X connect 3 0 11 1;
#X connect 4 0 7 0;
#X connect 5 0 4 0;
#X connect 6 0 9 0;
#X connect 6 0 15 0;
#X connect 6 0 8 0;
#X connect 8 0 23 0;
#X connect 9 0 10 0;
#X connect 10 0 13 0;
#X connect 11 0 12 0;
#X connect 12 0 17 0;
#X connect 13 0 14 0;
#X connect 14 0 18 0;
#X connect 15 0 11 0;
#X connect 16 0 1 0;
#X connect 17 0 13 0;
#X connect 17 1 13 1;
#X connect 18 0 19 0;
#X connect 19 0 20 0;
#X connect 20 0 8 1;
#X connect 20 1 23 0;
#X connect 21 0 1 0;
#X connect 22 0 0 0;
#X connect 22 0 16 0;
