#N canvas 343 136 658 433 10;
#X obj 163 166 bonk~;
#X obj 200 201 unpack 0 0 0;
#X floatatom 234 222 5 0 0 0 - - -, f 5;
#X obj 132 135 adc~;
#X msg 193 137 print;
#X text 232 139 Print out settings and templates.;
#X text 270 112 Minimum "velocity" to output (quieter notes are ignored.)
;
#X msg 193 111 minvel 30;
#X text 270 35 Set low and high thresholds. Signal growth must exceed
the high one and then fall to the low one to make an attack. The unit
is the sum of the proportional growth in the 11 filter bands. Proportional
growth is essentially the logarithmic time derivative.;
#X msg 173 68 thresh 2.5 5;
#N canvas 584 154 646 512 templates 0;
#X msg 26 197 learn 0;
#X msg 26 227 forget;
#X msg 26 257 write templates.txt;
#X msg 26 287 read templates.txt;
#X msg 26 107 debounce 0;
#X msg 26 137 learn 10;
#X obj 12 431 outlet;
#X text 135 133 Forget all templates and start learning new ones. The
argument gives the number of times you will hit each instrument (10
recommended.) Turn on the output volume above for audible feedback
as you train Bonk. "Learn 0" exits learn mode.;
#X text 135 217 Forget the last template. In Learn mode \, use "forget"
to erase and record over a template.;
#X text 200 253 Write templates to a file in text-editable format.
;
#X text 201 283 Read templates from a file.;
#X text 137 104 Minimum time (msec) between attacks in learn mode;
#X connect 0 0 6 0;
#X connect 1 0 6 0;
#X connect 2 0 6 0;
#X connect 3 0 6 0;
#X connect 4 0 6 0;
#X connect 5 0 6 0;
#X restore 163 41 pd templates;
#N canvas 109 125 634 493 synth 0;
#X obj 112 189 * 12;
#X obj 112 214 div 7;
#X obj 112 164 + 1;
#X obj 112 264 mtof;
#X obj 112 314 osc~;
#X obj 112 339 cos~;
#X obj 112 239 + 47;
#X obj 211 337 line~;
#X obj 112 364 *~;
#X obj 103 451 dac~;
#X obj 211 298 f;
#X msg 211 279 bang;
#X obj 111 397 hip~ 5;
#X obj 112 289 sig~;
#X msg 211 318 \$1 \, 0 200;
#X obj 226 220 *;
#X obj 112 34 inlet trigger;
#X obj 226 34 inlet velocity;
#X obj 241 200 inlet amplitude;
#X floatatom 226 242 5 0 0 0 - - -, f 5;
#X connect 0 0 1 0;
#X connect 1 0 6 0;
#X connect 2 0 0 0;
#X connect 3 0 11 0;
#X connect 3 0 13 0;
#X connect 4 0 5 0;
#X connect 5 0 8 0;
#X connect 6 0 3 0;
#X connect 7 0 8 1;
#X connect 8 0 12 0;
#X connect 10 0 14 0;
#X connect 11 0 10 0;
#X connect 12 0 9 1;
#X connect 12 0 9 0;
#X connect 13 0 4 0;
#X connect 14 0 7 0;
#X connect 15 0 19 0;
#X connect 16 0 2 0;
#X connect 17 0 15 0;
#X connect 18 0 15 1;
#X connect 19 0 10 1;
#X restore 459 333 pd synth;
#X floatatom 504 301 0 0 0 0 - - -;
#X msg 504 271 0;
#X obj 190 341 s bonk-cooked;
#X floatatom 234 258 5 0 0 0 - - -, f 5;
#X obj 234 238 / 200;
#X obj 200 222 bng 15 250 50 0 empty empty empty 17 7 0 10 -262144
-1 -1;
#X msg 535 271 0.9;
#X obj 234 277 s \$0-vel;
#X obj 200 296 s \$0-trig;
#X obj 481 250 r \$0-vel;
#X obj 459 229 r \$0-trig;
#X connect 0 1 1 0;
#X connect 0 1 14 0;
#X connect 1 0 17 0;
#X connect 1 1 2 0;
#X connect 2 0 16 0;
#X connect 3 1 0 0;
#X connect 4 0 0 0;
#X connect 7 0 0 0;
#X connect 9 0 0 0;
#X connect 10 0 0 0;
#X connect 12 0 11 2;
#X connect 13 0 12 0;
#X connect 15 0 19 0;
#X connect 16 0 15 0;
#X connect 17 0 20 0;
#X connect 18 0 12 0;
#X connect 21 0 11 1;
#X connect 22 0 11 0;
