#N canvas 122 73 902 552 10;
#X obj 138 389 pack f f;
#X msg 138 409 0 \$2;
#X obj 138 369 sel 0;
#X obj 577 342 dac~;
#X obj 582 283 *~;
#X obj 582 310 *~ 0.1;
#X obj 582 245 osc~ 440;
#X obj 128 80 tgl 15 0 empty empty trigger/release 17 7 0 10 -262144
-1 -1 0 1;
#X obj 128 190 sel 1;
#X floatatom 128 231 5 0 0 0 - - -, f 5;
#X floatatom 353 122 5 0 0 0 - - -, f 5;
#X floatatom 453 122 5 0 0 0 - - -, f 5;
#X floatatom 553 112 5 0 0 0 - - -, f 5;
#X floatatom 673 112 5 0 0 0 - - -, f 5;
#X obj 128 308 pack f f f f;
#X obj 128 438 vline~;
#X msg 128 328 1 \$2 \, \$4 \$3 \$2;
#X obj 128 60 inlet \$0-trigger;
#X obj 238 60 inlet \$0-velocity;
#X obj 138 349 r \$0-trigger;
#X obj 128 100 s \$0-trigger;
#X obj 128 170 r \$0-trigger;
#X obj 128 210 f 1;
#X obj 353 138 s \$0-attack;
#X obj 151 248 r \$0-attack;
#X obj 453 138 s \$0-decay;
#X obj 174 268 r \$0-decay;
#X obj 553 128 s \$0-sustain;
#X obj 197 288 r \$0-sustain;
#X obj 673 128 s \$0-release;
#X obj 183 369 r \$0-release;
#X obj 353 60 inlet \$0-attack;
#X obj 453 60 inlet \$0-decay;
#X obj 553 60 inlet \$0-sustain;
#X obj 673 60 inlet \$0-release;
#X obj 128 460 outlet~;
#X obj 238 100 s \$0-velocity;
#X obj 158 210 r \$0-velocity;
#X obj 360 101 \$1;
#X obj 460 102 \$2;
#X obj 560 92 \$3;
#X obj 680 91 \$4;
#X obj 574 5 loadbang;
#X text 376 83 0-1000;
#X text 486 83 0-1000;
#X text 726 83 0-1000;
#X text 596 83 0-1;
#X floatatom 660 342 5 0 0 0 - - -, f 5;
#X obj 660 254 vsl 15 80 0 1000 0 0 empty \$0-a a 4 -9 0 10 -262144
-1 -1 0 1;
#X floatatom 700 342 5 0 0 0 - - -, f 5;
#X obj 700 254 vsl 15 80 0 1000 0 0 empty \$0-d d 4 -9 0 10 -262144
-1 -1 0 1;
#X floatatom 740 342 5 0 0 0 - - -, f 5;
#X obj 740 254 vsl 15 80 0 1 0 0 empty \$0-s s 4 -9 0 10 -262144 -1
-1 0 1;
#X floatatom 780 342 5 0 0 0 - - -, f 5;
#X obj 780 254 vsl 15 80 0 1000 0 0 empty \$0-r r 4 -9 0 10 -262144
-1 -1 0 1;
#X connect 0 0 1 0;
#X connect 1 0 15 0;
#X connect 2 0 0 0;
#X connect 4 0 5 0;
#X connect 5 0 3 0;
#X connect 5 0 3 1;
#X connect 6 0 4 0;
#X connect 7 0 20 0;
#X connect 8 0 22 0;
#X connect 8 1 9 0;
#X connect 9 0 14 0;
#X connect 10 0 23 0;
#X connect 11 0 25 0;
#X connect 12 0 27 0;
#X connect 13 0 29 0;
#X connect 14 0 16 0;
#X connect 15 0 35 0;
#X connect 16 0 15 0;
#X connect 17 0 7 0;
#X connect 18 0 36 0;
#X connect 19 0 2 0;
#X connect 21 0 8 0;
#X connect 22 0 9 0;
#X connect 24 0 14 1;
#X connect 26 0 14 2;
#X connect 28 0 14 3;
#X connect 30 0 0 1;
#X connect 31 0 10 0;
#X connect 32 0 11 0;
#X connect 33 0 12 0;
#X connect 34 0 13 0;
#X connect 37 0 22 1;
#X connect 38 0 10 0;
#X connect 39 0 11 0;
#X connect 40 0 12 0;
#X connect 41 0 13 0;
#X connect 42 0 38 0;
#X connect 42 0 39 0;
#X connect 42 0 40 0;
#X connect 42 0 41 0;
#X connect 48 0 47 0;
#X connect 50 0 49 0;
#X connect 52 0 51 0;
#X connect 54 0 53 0;
