#N canvas 319 22 928 546 10;
#X obj 249 399 pack f f;
#X obj 249 379 sel 0;
#X floatatom 249 231 5 0 0 0 - - -, f 5;
#X floatatom 133 122 5 0 0 0 - - -, f 5;
#X floatatom 233 122 5 0 0 0 - - -, f 5;
#X floatatom 364 112 5 0 0 0 - - -, f 5;
#X floatatom 523 112 5 0 0 0 - - -, f 5;
#X obj 318 295 pack f f f f;
#X obj 318 458 vline~;
#X obj 18 60 inlet \$0-velocity;
#X obj 133 138 s \$0-attack;
#X obj 341 235 r \$0-attack;
#X obj 233 138 s \$0-decay;
#X obj 364 255 r \$0-decay;
#X obj 349 172 s \$0-sustain;
#X obj 387 275 r \$0-sustain;
#X obj 523 128 s \$0-release;
#X obj 294 379 r \$0-release;
#X obj 133 60 inlet \$0-attack;
#X obj 233 60 inlet \$0-decay;
#X obj 364 60 inlet \$0-sustain;
#X obj 523 60 inlet \$0-release;
#X obj 318 480 outlet~;
#X obj 18 100 s \$0-velocity;
#X obj 249 210 r \$0-velocity;
#X obj 140 101 \$1;
#X obj 240 102 \$2;
#X obj 371 92 \$3;
#X obj 530 91 \$4;
#X obj 354 5 loadbang;
#X text 156 83 0-1000;
#X text 266 83 0-1000;
#X text 576 83 0-1000;
#X text 407 83 0-1;
#X msg 249 419 0 \$2;
#X obj 249 248 moses 0.0001;
#X msg 318 315 \$1 \$2 \, \$4 \$3 \$2;
#X obj 349 130 r \$0-velocity;
#X obj 349 152 *;
#X obj 41 292 r GLOBAL_killnotes;
#X msg 41 314 0;
#X connect 0 0 34 0;
#X connect 1 0 0 0;
#X connect 2 0 35 0;
#X connect 3 0 10 0;
#X connect 4 0 12 0;
#X connect 5 0 38 1;
#X connect 6 0 16 0;
#X connect 7 0 36 0;
#X connect 8 0 22 0;
#X connect 9 0 23 0;
#X connect 11 0 7 1;
#X connect 13 0 7 2;
#X connect 15 0 7 3;
#X connect 17 0 0 1;
#X connect 18 0 3 0;
#X connect 19 0 4 0;
#X connect 20 0 5 0;
#X connect 21 0 6 0;
#X connect 24 0 2 0;
#X connect 25 0 3 0;
#X connect 26 0 4 0;
#X connect 27 0 5 0;
#X connect 28 0 6 0;
#X connect 29 0 25 0;
#X connect 29 0 26 0;
#X connect 29 0 27 0;
#X connect 29 0 28 0;
#X connect 34 0 8 0;
#X connect 35 0 1 0;
#X connect 35 1 7 0;
#X connect 36 0 8 0;
#X connect 37 0 38 0;
#X connect 38 0 14 0;
#X connect 39 0 40 0;
#X connect 40 0 1 0;
